G75*
%MOIN*%
%OFA0B0*%
%FSLAX25Y25*%
%IPPOS*%
%LPD*%
%AMOC8*
5,1,8,0,0,1.08239X$1,22.5*
%
%ADD10R,0.20000X0.08000*%
%ADD11C,0.13800*%
%ADD12C,0.08200*%
%ADD13C,0.04737*%
D10*
X0063250Y0035500D03*
X0125171Y0035500D03*
X0187092Y0035500D03*
X0249014Y0035500D03*
X0249014Y0106201D03*
X0187092Y0106201D03*
X0125171Y0106201D03*
X0063250Y0106201D03*
X0063250Y0176902D03*
X0125171Y0176902D03*
X0187092Y0176902D03*
X0249014Y0176902D03*
X0249014Y0247602D03*
X0187092Y0247602D03*
X0125171Y0247602D03*
X0063250Y0247602D03*
D11*
X0063750Y0227402D03*
X0125671Y0227402D03*
X0187592Y0227402D03*
X0249514Y0227402D03*
X0249514Y0298102D03*
X0187592Y0298102D03*
X0125671Y0298102D03*
X0063750Y0298102D03*
X0063750Y0156701D03*
X0125671Y0156701D03*
X0187592Y0156701D03*
X0249514Y0156701D03*
X0249514Y0086000D03*
X0187592Y0086000D03*
X0125671Y0086000D03*
X0063750Y0086000D03*
D12*
X0043750Y0033500D03*
X0043750Y0043500D03*
X0043750Y0053500D03*
X0043750Y0063500D03*
X0043750Y0073500D03*
X0043750Y0104201D03*
X0043750Y0114201D03*
X0043750Y0124201D03*
X0043750Y0134201D03*
X0043750Y0144201D03*
X0043750Y0174902D03*
X0043750Y0184902D03*
X0043750Y0194902D03*
X0043750Y0204902D03*
X0043750Y0214902D03*
X0043750Y0245602D03*
X0043750Y0255602D03*
X0043750Y0265602D03*
X0043750Y0275602D03*
X0043750Y0285602D03*
X0083750Y0285602D03*
X0083750Y0275602D03*
X0083750Y0265602D03*
X0083750Y0255602D03*
X0083750Y0245602D03*
X0105671Y0245602D03*
X0105671Y0255602D03*
X0105671Y0265602D03*
X0105671Y0275602D03*
X0105671Y0285602D03*
X0145671Y0285602D03*
X0145671Y0275602D03*
X0145671Y0265602D03*
X0145671Y0255602D03*
X0145671Y0245602D03*
X0167592Y0245602D03*
X0167592Y0255602D03*
X0167592Y0265602D03*
X0167592Y0275602D03*
X0167592Y0285602D03*
X0207592Y0285602D03*
X0207592Y0275602D03*
X0207592Y0265602D03*
X0207592Y0255602D03*
X0207592Y0245602D03*
X0229514Y0245602D03*
X0229514Y0255602D03*
X0229514Y0265602D03*
X0229514Y0275602D03*
X0229514Y0285602D03*
X0269514Y0285602D03*
X0269514Y0275602D03*
X0269514Y0265602D03*
X0269514Y0255602D03*
X0269514Y0245602D03*
X0269514Y0214902D03*
X0269514Y0204902D03*
X0269514Y0194902D03*
X0269514Y0184902D03*
X0269514Y0174902D03*
X0269514Y0144201D03*
X0269514Y0134201D03*
X0269514Y0124201D03*
X0269514Y0114201D03*
X0269514Y0104201D03*
X0269514Y0073500D03*
X0269514Y0063500D03*
X0269514Y0053500D03*
X0269514Y0043500D03*
X0269514Y0033500D03*
X0229514Y0033500D03*
X0229514Y0043500D03*
X0229514Y0053500D03*
X0229514Y0063500D03*
X0229514Y0073500D03*
X0207592Y0073500D03*
X0207592Y0063500D03*
X0207592Y0053500D03*
X0207592Y0043500D03*
X0207592Y0033500D03*
X0167592Y0033500D03*
X0167592Y0043500D03*
X0167592Y0053500D03*
X0167592Y0063500D03*
X0167592Y0073500D03*
X0145671Y0073500D03*
X0145671Y0063500D03*
X0145671Y0053500D03*
X0145671Y0043500D03*
X0145671Y0033500D03*
X0105671Y0033500D03*
X0105671Y0043500D03*
X0105671Y0053500D03*
X0105671Y0063500D03*
X0105671Y0073500D03*
X0083750Y0073500D03*
X0083750Y0063500D03*
X0083750Y0053500D03*
X0083750Y0043500D03*
X0083750Y0033500D03*
X0083750Y0104201D03*
X0083750Y0114201D03*
X0083750Y0124201D03*
X0083750Y0134201D03*
X0083750Y0144201D03*
X0105671Y0144201D03*
X0105671Y0134201D03*
X0105671Y0124201D03*
X0105671Y0114201D03*
X0105671Y0104201D03*
X0145671Y0104201D03*
X0145671Y0114201D03*
X0145671Y0124201D03*
X0145671Y0134201D03*
X0145671Y0144201D03*
X0167592Y0144201D03*
X0167592Y0134201D03*
X0167592Y0124201D03*
X0167592Y0114201D03*
X0167592Y0104201D03*
X0207592Y0104201D03*
X0207592Y0114201D03*
X0207592Y0124201D03*
X0207592Y0134201D03*
X0207592Y0144201D03*
X0229514Y0144201D03*
X0229514Y0134201D03*
X0229514Y0124201D03*
X0229514Y0114201D03*
X0229514Y0104201D03*
X0229514Y0174902D03*
X0229514Y0184902D03*
X0229514Y0194902D03*
X0229514Y0204902D03*
X0229514Y0214902D03*
X0207592Y0214902D03*
X0207592Y0204902D03*
X0207592Y0194902D03*
X0207592Y0184902D03*
X0207592Y0174902D03*
X0167592Y0174902D03*
X0167592Y0184902D03*
X0167592Y0194902D03*
X0167592Y0204902D03*
X0167592Y0214902D03*
X0145671Y0214902D03*
X0145671Y0204902D03*
X0145671Y0194902D03*
X0145671Y0184902D03*
X0145671Y0174902D03*
X0105671Y0174902D03*
X0105671Y0184902D03*
X0105671Y0194902D03*
X0105671Y0204902D03*
X0105671Y0214902D03*
X0083750Y0214902D03*
X0083750Y0204902D03*
X0083750Y0194902D03*
X0083750Y0184902D03*
X0083750Y0174902D03*
D13*
X0083750Y0159201D03*
X0105671Y0159201D03*
X0145671Y0159201D03*
X0167592Y0159201D03*
X0207592Y0159201D03*
X0229514Y0159201D03*
X0269514Y0159201D03*
X0269514Y0229902D03*
X0229514Y0229902D03*
X0207592Y0229902D03*
X0167592Y0229902D03*
X0145671Y0229902D03*
X0105671Y0229902D03*
X0083750Y0229902D03*
X0043750Y0229902D03*
X0043750Y0300602D03*
X0083750Y0300602D03*
X0105671Y0300602D03*
X0145671Y0300602D03*
X0167592Y0300602D03*
X0207592Y0300602D03*
X0229514Y0300602D03*
X0269514Y0300602D03*
X0043750Y0159201D03*
X0043750Y0088500D03*
X0083750Y0088500D03*
X0105671Y0088500D03*
X0145671Y0088500D03*
X0167592Y0088500D03*
X0207592Y0088500D03*
X0229514Y0088500D03*
X0269514Y0088500D03*
M02*
