%
M48
M72
T01C0.0150
T02C0.0400
T03C0.1300
%
T01
X6375Y4450
X6375Y4850
X6375Y5250
X12567Y5250
X12567Y4850
X12567Y4450
X18759Y4450
X18759Y4850
X18759Y5250
X24951Y5250
X24951Y4850
X24951Y4450
X24951Y11520
X24951Y11920
X24951Y12320
X18759Y12320
X18759Y11920
X18759Y11520
X12567Y11520
X12567Y11920
X12567Y12320
X6375Y12320
X6375Y11920
X6375Y11520
X6375Y18590
X6375Y18990
X6375Y19390
X12567Y19390
X12567Y18990
X12567Y18590
X18759Y18590
X18759Y18990
X18759Y19390
X24951Y19390
X24951Y18990
X24951Y18590
X24951Y25660
X24951Y26060
X24951Y26460
X18759Y26460
X18759Y26060
X18759Y25660
X12567Y25660
X12567Y26060
X12567Y26460
X6375Y26460
X6375Y26060
X6375Y25660
T02
X4375Y3350
X4375Y4350
X4375Y5350
X4375Y6350
X4375Y7350
X4375Y10420
X4375Y11420
X4375Y12420
X4375Y13420
X4375Y14420
X4375Y17490
X4375Y18490
X4375Y19490
X4375Y20490
X4375Y21490
X4375Y24560
X4375Y25560
X4375Y26560
X4375Y27560
X4375Y28560
X8375Y28560
X8375Y27560
X8375Y26560
X8375Y25560
X8375Y24560
X10567Y24560
X10567Y25560
X10567Y26560
X10567Y27560
X10567Y28560
X14567Y28560
X14567Y27560
X14567Y26560
X14567Y25560
X14567Y24560
X16759Y24560
X16759Y25560
X16759Y26560
X16759Y27560
X16759Y28560
X20759Y28560
X20759Y27560
X20759Y26560
X20759Y25560
X20759Y24560
X22951Y24560
X22951Y25560
X22951Y26560
X22951Y27560
X22951Y28560
X26951Y28560
X26951Y27560
X26951Y26560
X26951Y25560
X26951Y24560
X26951Y21490
X26951Y20490
X26951Y19490
X26951Y18490
X26951Y17490
X26951Y14420
X26951Y13420
X26951Y12420
X26951Y11420
X26951Y10420
X26951Y7350
X26951Y6350
X26951Y5350
X26951Y4350
X26951Y3350
X22951Y3350
X22951Y4350
X22951Y5350
X22951Y6350
X22951Y7350
X20759Y7350
X20759Y6350
X20759Y5350
X20759Y4350
X20759Y3350
X16759Y3350
X16759Y4350
X16759Y5350
X16759Y6350
X16759Y7350
X14567Y7350
X14567Y6350
X14567Y5350
X14567Y4350
X14567Y3350
X10567Y3350
X10567Y4350
X10567Y5350
X10567Y6350
X10567Y7350
X8375Y7350
X8375Y6350
X8375Y5350
X8375Y4350
X8375Y3350
X8375Y10420
X8375Y11420
X8375Y12420
X8375Y13420
X8375Y14420
X10567Y14420
X10567Y13420
X10567Y12420
X10567Y11420
X10567Y10420
X14567Y10420
X14567Y11420
X14567Y12420
X14567Y13420
X14567Y14420
X16759Y14420
X16759Y13420
X16759Y12420
X16759Y11420
X16759Y10420
X20759Y10420
X20759Y11420
X20759Y12420
X20759Y13420
X20759Y14420
X22951Y14420
X22951Y13420
X22951Y12420
X22951Y11420
X22951Y10420
X22951Y17490
X22951Y18490
X22951Y19490
X22951Y20490
X22951Y21490
X20759Y21490
X20759Y20490
X20759Y19490
X20759Y18490
X20759Y17490
X16759Y17490
X16759Y18490
X16759Y19490
X16759Y20490
X16759Y21490
X14567Y21490
X14567Y20490
X14567Y19490
X14567Y18490
X14567Y17490
X10567Y17490
X10567Y18490
X10567Y19490
X10567Y20490
X10567Y21490
X8375Y21490
X8375Y20490
X8375Y19490
X8375Y18490
X8375Y17490
T03
X6375Y15670
X12567Y15670
X18759Y15670
X24951Y15670
X24951Y8600
X18759Y8600
X12567Y8600
X6375Y8600
X6375Y22740
X12567Y22740
X18759Y22740
X24951Y22740
X24951Y29810
X18759Y29810
X12567Y29810
X6375Y29810
M30
