G75*
%MOIN*%
%OFA0B0*%
%FSLAX25Y25*%
%IPPOS*%
%LPD*%
%AMOC8*
5,1,8,0,0,1.08239X$1,22.5*
%
%ADD10R,0.04724X0.02165*%
%ADD11R,0.04331X0.03937*%
D10*
X0058631Y0044760D03*
X0058631Y0048500D03*
X0058631Y0052240D03*
X0068869Y0052240D03*
X0068869Y0044760D03*
X0120553Y0044760D03*
X0120553Y0048500D03*
X0120553Y0052240D03*
X0130790Y0052240D03*
X0130790Y0044760D03*
X0182474Y0044760D03*
X0182474Y0048500D03*
X0182474Y0052240D03*
X0192711Y0052240D03*
X0192711Y0044760D03*
X0244395Y0044760D03*
X0244395Y0048500D03*
X0244395Y0052240D03*
X0254632Y0052240D03*
X0254632Y0044760D03*
X0254632Y0115461D03*
X0254632Y0122941D03*
X0244395Y0122941D03*
X0244395Y0119201D03*
X0244395Y0115461D03*
X0192711Y0115461D03*
X0192711Y0122941D03*
X0182474Y0122941D03*
X0182474Y0119201D03*
X0182474Y0115461D03*
X0130790Y0115461D03*
X0130790Y0122941D03*
X0120553Y0122941D03*
X0120553Y0119201D03*
X0120553Y0115461D03*
X0068869Y0115461D03*
X0068869Y0122941D03*
X0058631Y0122941D03*
X0058631Y0119201D03*
X0058631Y0115461D03*
X0058631Y0186161D03*
X0058631Y0189902D03*
X0058631Y0193642D03*
X0068869Y0193642D03*
X0068869Y0186161D03*
X0120553Y0186161D03*
X0120553Y0189902D03*
X0120553Y0193642D03*
X0130790Y0193642D03*
X0130790Y0186161D03*
X0182474Y0186161D03*
X0182474Y0189902D03*
X0182474Y0193642D03*
X0192711Y0193642D03*
X0192711Y0186161D03*
X0244395Y0186161D03*
X0244395Y0189902D03*
X0244395Y0193642D03*
X0254632Y0193642D03*
X0254632Y0186161D03*
X0254632Y0256862D03*
X0254632Y0264343D03*
X0244395Y0264343D03*
X0244395Y0260602D03*
X0244395Y0256862D03*
X0192711Y0256862D03*
X0192711Y0264343D03*
X0182474Y0264343D03*
X0182474Y0260602D03*
X0182474Y0256862D03*
X0130790Y0256862D03*
X0130790Y0264343D03*
X0120553Y0264343D03*
X0120553Y0260602D03*
X0120553Y0256862D03*
X0068869Y0256862D03*
X0068869Y0264343D03*
X0058631Y0264343D03*
X0058631Y0260602D03*
X0058631Y0256862D03*
D11*
X0060404Y0270602D03*
X0067096Y0270602D03*
X0122325Y0270602D03*
X0129018Y0270602D03*
X0184246Y0270602D03*
X0190939Y0270602D03*
X0246167Y0270602D03*
X0252860Y0270602D03*
X0252860Y0199902D03*
X0246167Y0199902D03*
X0190939Y0199902D03*
X0184246Y0199902D03*
X0129018Y0199902D03*
X0122325Y0199902D03*
X0067096Y0199902D03*
X0060404Y0199902D03*
X0060404Y0129201D03*
X0067096Y0129201D03*
X0122325Y0129201D03*
X0129018Y0129201D03*
X0184246Y0129201D03*
X0190939Y0129201D03*
X0246167Y0129201D03*
X0252860Y0129201D03*
X0252860Y0058500D03*
X0246167Y0058500D03*
X0190939Y0058500D03*
X0184246Y0058500D03*
X0129018Y0058500D03*
X0122325Y0058500D03*
X0067096Y0058500D03*
X0060404Y0058500D03*
M02*
