G75*
%MOIN*%
%OFA0B0*%
%FSLAX25Y25*%
%IPPOS*%
%LPD*%
%AMOC8*
5,1,8,0,0,1.08239X$1,22.5*
%
%ADD10C,0.07400*%
%ADD11C,0.03937*%
%ADD12C,0.03600*%
%ADD13C,0.02000*%
%ADD14C,0.02700*%
D10*
X0043750Y0033500D03*
X0043750Y0043500D03*
X0043750Y0053500D03*
X0043750Y0063500D03*
X0043750Y0073500D03*
X0043750Y0104201D03*
X0043750Y0114201D03*
X0043750Y0124201D03*
X0043750Y0134201D03*
X0043750Y0144201D03*
X0043750Y0174902D03*
X0043750Y0184902D03*
X0043750Y0194902D03*
X0043750Y0204902D03*
X0043750Y0214902D03*
X0043750Y0245602D03*
X0043750Y0255602D03*
X0043750Y0265602D03*
X0043750Y0275602D03*
X0043750Y0285602D03*
X0083750Y0285602D03*
X0083750Y0275602D03*
X0083750Y0265602D03*
X0083750Y0255602D03*
X0083750Y0245602D03*
X0105671Y0245602D03*
X0105671Y0255602D03*
X0105671Y0265602D03*
X0105671Y0275602D03*
X0105671Y0285602D03*
X0145671Y0285602D03*
X0145671Y0275602D03*
X0145671Y0265602D03*
X0145671Y0255602D03*
X0145671Y0245602D03*
X0167592Y0245602D03*
X0167592Y0255602D03*
X0167592Y0265602D03*
X0167592Y0275602D03*
X0167592Y0285602D03*
X0207592Y0285602D03*
X0207592Y0275602D03*
X0207592Y0265602D03*
X0207592Y0255602D03*
X0207592Y0245602D03*
X0229514Y0245602D03*
X0229514Y0255602D03*
X0229514Y0265602D03*
X0229514Y0275602D03*
X0229514Y0285602D03*
X0269514Y0285602D03*
X0269514Y0275602D03*
X0269514Y0265602D03*
X0269514Y0255602D03*
X0269514Y0245602D03*
X0269514Y0214902D03*
X0269514Y0204902D03*
X0269514Y0194902D03*
X0269514Y0184902D03*
X0269514Y0174902D03*
X0269514Y0144201D03*
X0269514Y0134201D03*
X0269514Y0124201D03*
X0269514Y0114201D03*
X0269514Y0104201D03*
X0269514Y0073500D03*
X0269514Y0063500D03*
X0269514Y0053500D03*
X0269514Y0043500D03*
X0269514Y0033500D03*
X0229514Y0033500D03*
X0229514Y0043500D03*
X0229514Y0053500D03*
X0229514Y0063500D03*
X0229514Y0073500D03*
X0207592Y0073500D03*
X0207592Y0063500D03*
X0207592Y0053500D03*
X0207592Y0043500D03*
X0207592Y0033500D03*
X0167592Y0033500D03*
X0167592Y0043500D03*
X0167592Y0053500D03*
X0167592Y0063500D03*
X0167592Y0073500D03*
X0145671Y0073500D03*
X0145671Y0063500D03*
X0145671Y0053500D03*
X0145671Y0043500D03*
X0145671Y0033500D03*
X0105671Y0033500D03*
X0105671Y0043500D03*
X0105671Y0053500D03*
X0105671Y0063500D03*
X0105671Y0073500D03*
X0083750Y0073500D03*
X0083750Y0063500D03*
X0083750Y0053500D03*
X0083750Y0043500D03*
X0083750Y0033500D03*
X0083750Y0104201D03*
X0083750Y0114201D03*
X0083750Y0124201D03*
X0083750Y0134201D03*
X0083750Y0144201D03*
X0105671Y0144201D03*
X0105671Y0134201D03*
X0105671Y0124201D03*
X0105671Y0114201D03*
X0105671Y0104201D03*
X0145671Y0104201D03*
X0145671Y0114201D03*
X0145671Y0124201D03*
X0145671Y0134201D03*
X0145671Y0144201D03*
X0167592Y0144201D03*
X0167592Y0134201D03*
X0167592Y0124201D03*
X0167592Y0114201D03*
X0167592Y0104201D03*
X0207592Y0104201D03*
X0207592Y0114201D03*
X0207592Y0124201D03*
X0207592Y0134201D03*
X0207592Y0144201D03*
X0229514Y0144201D03*
X0229514Y0134201D03*
X0229514Y0124201D03*
X0229514Y0114201D03*
X0229514Y0104201D03*
X0229514Y0174902D03*
X0229514Y0184902D03*
X0229514Y0194902D03*
X0229514Y0204902D03*
X0229514Y0214902D03*
X0207592Y0214902D03*
X0207592Y0204902D03*
X0207592Y0194902D03*
X0207592Y0184902D03*
X0207592Y0174902D03*
X0167592Y0174902D03*
X0167592Y0184902D03*
X0167592Y0194902D03*
X0167592Y0204902D03*
X0167592Y0214902D03*
X0145671Y0214902D03*
X0145671Y0204902D03*
X0145671Y0194902D03*
X0145671Y0184902D03*
X0145671Y0174902D03*
X0105671Y0174902D03*
X0105671Y0184902D03*
X0105671Y0194902D03*
X0105671Y0204902D03*
X0105671Y0214902D03*
X0083750Y0214902D03*
X0083750Y0204902D03*
X0083750Y0194902D03*
X0083750Y0184902D03*
X0083750Y0174902D03*
D11*
X0083750Y0159201D03*
X0105671Y0159201D03*
X0145671Y0159201D03*
X0167592Y0159201D03*
X0207592Y0159201D03*
X0229514Y0159201D03*
X0269514Y0159201D03*
X0269514Y0229902D03*
X0229514Y0229902D03*
X0207592Y0229902D03*
X0167592Y0229902D03*
X0145671Y0229902D03*
X0105671Y0229902D03*
X0083750Y0229902D03*
X0043750Y0229902D03*
X0043750Y0300602D03*
X0083750Y0300602D03*
X0105671Y0300602D03*
X0145671Y0300602D03*
X0167592Y0300602D03*
X0207592Y0300602D03*
X0229514Y0300602D03*
X0269514Y0300602D03*
X0043750Y0159201D03*
X0043750Y0088500D03*
X0083750Y0088500D03*
X0105671Y0088500D03*
X0145671Y0088500D03*
X0167592Y0088500D03*
X0207592Y0088500D03*
X0229514Y0088500D03*
X0269514Y0088500D03*
D12*
X0265353Y0078500D02*
X0265219Y0078397D01*
X0264616Y0077795D01*
X0264098Y0077119D01*
X0263672Y0076381D01*
X0263346Y0075594D01*
X0263125Y0074771D01*
X0263014Y0073926D01*
X0263014Y0073500D01*
X0269514Y0073500D01*
X0263014Y0073500D01*
X0263014Y0073074D01*
X0263125Y0072229D01*
X0263346Y0071406D01*
X0263672Y0070619D01*
X0264098Y0069881D01*
X0264616Y0069205D01*
X0265219Y0068603D01*
X0265655Y0068268D01*
X0264342Y0066955D01*
X0263414Y0064713D01*
X0263414Y0062287D01*
X0264342Y0060045D01*
X0265887Y0058500D01*
X0264342Y0056955D01*
X0263414Y0054713D01*
X0263414Y0052287D01*
X0264342Y0050045D01*
X0265887Y0048500D01*
X0264342Y0046955D01*
X0263414Y0044713D01*
X0263414Y0042287D01*
X0264342Y0040045D01*
X0265887Y0038500D01*
X0264342Y0036955D01*
X0263414Y0034713D01*
X0263414Y0032287D01*
X0263988Y0030900D01*
X0235039Y0030900D01*
X0235614Y0032287D01*
X0235614Y0034713D01*
X0234685Y0036955D01*
X0233140Y0038500D01*
X0234685Y0040045D01*
X0235122Y0041100D01*
X0247923Y0041100D01*
X0248768Y0040750D01*
X0250260Y0040750D01*
X0251638Y0041321D01*
X0252693Y0042376D01*
X0253264Y0043754D01*
X0253264Y0045246D01*
X0252744Y0046500D01*
X0253264Y0047754D01*
X0253264Y0049246D01*
X0252693Y0050624D01*
X0251638Y0051679D01*
X0250260Y0052250D01*
X0248768Y0052250D01*
X0247923Y0051900D01*
X0235922Y0051900D01*
X0235591Y0052231D01*
X0235614Y0052287D01*
X0235614Y0054713D01*
X0234685Y0056955D01*
X0233140Y0058500D01*
X0234685Y0060045D01*
X0235614Y0062287D01*
X0235614Y0064713D01*
X0234685Y0066955D01*
X0233373Y0068268D01*
X0233809Y0068603D01*
X0234411Y0069205D01*
X0234930Y0069881D01*
X0235356Y0070619D01*
X0235682Y0071406D01*
X0235903Y0072229D01*
X0236014Y0073074D01*
X0236014Y0073500D01*
X0236014Y0073926D01*
X0235903Y0074771D01*
X0235682Y0075594D01*
X0235356Y0076381D01*
X0234930Y0077119D01*
X0234411Y0077795D01*
X0233809Y0078397D01*
X0233675Y0078500D01*
X0243673Y0078500D01*
X0244691Y0077646D01*
X0247839Y0076500D01*
X0251189Y0076500D01*
X0254337Y0077646D01*
X0254337Y0077646D01*
X0255355Y0078500D01*
X0265353Y0078500D01*
X0263262Y0075281D02*
X0235766Y0075281D01*
X0236014Y0073500D02*
X0229514Y0073500D01*
X0229514Y0073500D01*
X0236014Y0073500D01*
X0235756Y0071682D02*
X0263272Y0071682D01*
X0265471Y0068084D02*
X0233557Y0068084D01*
X0235614Y0064485D02*
X0263414Y0064485D01*
X0263994Y0060887D02*
X0235034Y0060887D01*
X0234352Y0057288D02*
X0264675Y0057288D01*
X0263414Y0053690D02*
X0235614Y0053690D01*
X0233936Y0039296D02*
X0265092Y0039296D01*
X0263821Y0035697D02*
X0235206Y0035697D01*
X0235536Y0032099D02*
X0263492Y0032099D01*
X0263414Y0042894D02*
X0252908Y0042894D01*
X0252747Y0046493D02*
X0264151Y0046493D01*
X0264323Y0050091D02*
X0252914Y0050091D01*
X0269514Y0073500D02*
X0269514Y0073500D01*
X0244691Y0077646D02*
X0244691Y0077646D01*
X0235039Y0101601D02*
X0235614Y0102987D01*
X0235614Y0105414D01*
X0234685Y0107656D01*
X0233140Y0109201D01*
X0234685Y0110745D01*
X0235122Y0111801D01*
X0247923Y0111801D01*
X0248768Y0111451D01*
X0250260Y0111451D01*
X0251638Y0112022D01*
X0252693Y0113077D01*
X0253264Y0114455D01*
X0253264Y0115947D01*
X0252744Y0117201D01*
X0253264Y0118455D01*
X0253264Y0119947D01*
X0252693Y0121325D01*
X0251638Y0122380D01*
X0250260Y0122951D01*
X0248768Y0122951D01*
X0247923Y0122601D01*
X0235922Y0122601D01*
X0235591Y0122932D01*
X0235614Y0122987D01*
X0235614Y0125414D01*
X0234685Y0127656D01*
X0233140Y0129201D01*
X0234685Y0130745D01*
X0235614Y0132987D01*
X0235614Y0135414D01*
X0234685Y0137656D01*
X0233373Y0138969D01*
X0233809Y0139303D01*
X0234411Y0139906D01*
X0234930Y0140582D01*
X0235356Y0141320D01*
X0235682Y0142107D01*
X0235903Y0142930D01*
X0236014Y0143775D01*
X0236014Y0144201D01*
X0236014Y0144627D01*
X0235903Y0145472D01*
X0235682Y0146295D01*
X0235356Y0147082D01*
X0234930Y0147820D01*
X0234411Y0148496D01*
X0233809Y0149098D01*
X0233675Y0149201D01*
X0243673Y0149201D01*
X0244691Y0148347D01*
X0247839Y0147201D01*
X0251189Y0147201D01*
X0254337Y0148347D01*
X0255355Y0149201D01*
X0265353Y0149201D01*
X0265219Y0149098D01*
X0264616Y0148496D01*
X0264098Y0147820D01*
X0263672Y0147082D01*
X0263346Y0146295D01*
X0263125Y0145472D01*
X0263014Y0144627D01*
X0263014Y0144201D01*
X0269514Y0144201D01*
X0269514Y0144201D01*
X0263014Y0144201D01*
X0263014Y0143775D01*
X0263125Y0142930D01*
X0263346Y0142107D01*
X0263672Y0141320D01*
X0264098Y0140582D01*
X0264616Y0139906D01*
X0265219Y0139303D01*
X0265655Y0138969D01*
X0264342Y0137656D01*
X0263414Y0135414D01*
X0263414Y0132987D01*
X0264342Y0130745D01*
X0265887Y0129201D01*
X0264342Y0127656D01*
X0263414Y0125414D01*
X0263414Y0122987D01*
X0264342Y0120745D01*
X0265887Y0119201D01*
X0264342Y0117656D01*
X0263414Y0115414D01*
X0263414Y0112987D01*
X0264342Y0110745D01*
X0265887Y0109201D01*
X0264342Y0107656D01*
X0263414Y0105414D01*
X0263414Y0102987D01*
X0263988Y0101601D01*
X0235039Y0101601D01*
X0235614Y0104069D02*
X0263414Y0104069D01*
X0264354Y0107667D02*
X0234674Y0107667D01*
X0234901Y0111266D02*
X0264127Y0111266D01*
X0263414Y0114864D02*
X0253264Y0114864D01*
X0253264Y0118463D02*
X0265149Y0118463D01*
X0263797Y0122061D02*
X0251957Y0122061D01*
X0263516Y0125660D02*
X0235512Y0125660D01*
X0233198Y0129258D02*
X0265830Y0129258D01*
X0263468Y0132857D02*
X0235560Y0132857D01*
X0235183Y0136455D02*
X0263845Y0136455D01*
X0264503Y0140054D02*
X0234525Y0140054D01*
X0235998Y0143652D02*
X0263030Y0143652D01*
X0263769Y0147251D02*
X0251326Y0147251D01*
X0254337Y0148347D02*
X0254337Y0148347D01*
X0247701Y0147251D02*
X0235258Y0147251D01*
X0236014Y0144201D02*
X0229514Y0144201D01*
X0229514Y0144201D01*
X0236014Y0144201D01*
X0244691Y0148347D02*
X0244691Y0148347D01*
X0235039Y0172302D02*
X0235614Y0173688D01*
X0235614Y0176115D01*
X0234685Y0178357D01*
X0233140Y0179902D01*
X0234685Y0181446D01*
X0235122Y0182502D01*
X0247923Y0182502D01*
X0248768Y0182152D01*
X0250260Y0182152D01*
X0251638Y0182723D01*
X0252693Y0183777D01*
X0253264Y0185156D01*
X0253264Y0186648D01*
X0252744Y0187902D01*
X0253264Y0189156D01*
X0253264Y0190648D01*
X0252693Y0192026D01*
X0251638Y0193081D01*
X0250260Y0193652D01*
X0248768Y0193652D01*
X0247923Y0193302D01*
X0235922Y0193302D01*
X0235591Y0193633D01*
X0235614Y0193688D01*
X0235614Y0196115D01*
X0234685Y0198357D01*
X0233140Y0199902D01*
X0234685Y0201446D01*
X0235614Y0203688D01*
X0235614Y0206115D01*
X0234685Y0208357D01*
X0233373Y0209669D01*
X0233809Y0210004D01*
X0234411Y0210607D01*
X0234930Y0211283D01*
X0235356Y0212021D01*
X0235682Y0212808D01*
X0235903Y0213631D01*
X0236014Y0214476D01*
X0236014Y0214902D01*
X0236014Y0215328D01*
X0235903Y0216172D01*
X0235682Y0216995D01*
X0235356Y0217783D01*
X0234930Y0218521D01*
X0234411Y0219197D01*
X0233809Y0219799D01*
X0233675Y0219902D01*
X0243673Y0219902D01*
X0244691Y0219047D01*
X0247839Y0217902D01*
X0251189Y0217902D01*
X0254337Y0219047D01*
X0255355Y0219902D01*
X0265353Y0219902D01*
X0265219Y0219799D01*
X0264616Y0219197D01*
X0264098Y0218521D01*
X0263672Y0217783D01*
X0263346Y0216995D01*
X0263125Y0216172D01*
X0263014Y0215328D01*
X0263014Y0214902D01*
X0269514Y0214902D01*
X0269514Y0214902D01*
X0263014Y0214902D01*
X0263014Y0214476D01*
X0263125Y0213631D01*
X0263346Y0212808D01*
X0263672Y0212021D01*
X0264098Y0211283D01*
X0264616Y0210607D01*
X0265219Y0210004D01*
X0265655Y0209669D01*
X0264342Y0208357D01*
X0263414Y0206115D01*
X0263414Y0203688D01*
X0264342Y0201446D01*
X0265887Y0199902D01*
X0264342Y0198357D01*
X0263414Y0196115D01*
X0263414Y0193688D01*
X0264342Y0191446D01*
X0265887Y0189902D01*
X0264342Y0188357D01*
X0263414Y0186115D01*
X0263414Y0183688D01*
X0264342Y0181446D01*
X0265887Y0179902D01*
X0264342Y0178357D01*
X0263414Y0176115D01*
X0263414Y0173688D01*
X0263988Y0172302D01*
X0235039Y0172302D01*
X0235097Y0172440D02*
X0263931Y0172440D01*
X0263414Y0176039D02*
X0235614Y0176039D01*
X0233405Y0179637D02*
X0265623Y0179637D01*
X0263601Y0183236D02*
X0252151Y0183236D01*
X0253186Y0186834D02*
X0263712Y0186834D01*
X0265356Y0190433D02*
X0253264Y0190433D01*
X0263414Y0194032D02*
X0235614Y0194032D01*
X0234986Y0197630D02*
X0264041Y0197630D01*
X0264560Y0201229D02*
X0234467Y0201229D01*
X0235614Y0204827D02*
X0263414Y0204827D01*
X0264411Y0208426D02*
X0234617Y0208426D01*
X0235357Y0212024D02*
X0263670Y0212024D01*
X0263053Y0215623D02*
X0235975Y0215623D01*
X0236014Y0214902D02*
X0229514Y0214902D01*
X0229514Y0214902D01*
X0236014Y0214902D01*
X0234387Y0219221D02*
X0244484Y0219221D01*
X0244691Y0219047D02*
X0244691Y0219047D01*
X0254337Y0219047D02*
X0254337Y0219047D01*
X0254544Y0219221D02*
X0264641Y0219221D01*
X0263988Y0243002D02*
X0235039Y0243002D01*
X0235614Y0244389D01*
X0235614Y0246816D01*
X0234685Y0249058D01*
X0233140Y0250602D01*
X0234685Y0252147D01*
X0235122Y0253202D01*
X0247923Y0253202D01*
X0248768Y0252852D01*
X0250260Y0252852D01*
X0251638Y0253423D01*
X0252693Y0254478D01*
X0253264Y0255856D01*
X0253264Y0257348D01*
X0252744Y0258602D01*
X0253264Y0259856D01*
X0253264Y0261348D01*
X0252693Y0262727D01*
X0251638Y0263781D01*
X0250260Y0264352D01*
X0248768Y0264352D01*
X0247923Y0264002D01*
X0235922Y0264002D01*
X0235591Y0264334D01*
X0235614Y0264389D01*
X0235614Y0266816D01*
X0234685Y0269058D01*
X0233140Y0270602D01*
X0234685Y0272147D01*
X0235614Y0274389D01*
X0235614Y0276816D01*
X0234685Y0279058D01*
X0233373Y0280370D01*
X0233809Y0280705D01*
X0234411Y0281307D01*
X0234930Y0281983D01*
X0235356Y0282721D01*
X0235682Y0283509D01*
X0235903Y0284332D01*
X0236014Y0285176D01*
X0236014Y0285602D01*
X0229514Y0285602D01*
X0229514Y0285602D01*
X0236014Y0285602D01*
X0236014Y0286028D01*
X0235903Y0286873D01*
X0235682Y0287696D01*
X0235356Y0288483D01*
X0234930Y0289221D01*
X0234411Y0289897D01*
X0233809Y0290500D01*
X0233675Y0290602D01*
X0243673Y0290602D01*
X0244691Y0289748D01*
X0247839Y0288602D01*
X0251189Y0288602D01*
X0254337Y0289748D01*
X0255355Y0290602D01*
X0265353Y0290602D01*
X0265219Y0290500D01*
X0264616Y0289897D01*
X0264098Y0289221D01*
X0263672Y0288483D01*
X0263346Y0287696D01*
X0263125Y0286873D01*
X0263014Y0286028D01*
X0263014Y0285602D01*
X0263014Y0285176D01*
X0263125Y0284332D01*
X0263346Y0283509D01*
X0263672Y0282721D01*
X0264098Y0281983D01*
X0264616Y0281307D01*
X0265219Y0280705D01*
X0265655Y0280370D01*
X0264342Y0279058D01*
X0263414Y0276816D01*
X0263414Y0274389D01*
X0264342Y0272147D01*
X0265887Y0270602D01*
X0264342Y0269058D01*
X0263414Y0266816D01*
X0263414Y0264389D01*
X0264342Y0262147D01*
X0265887Y0260602D01*
X0264342Y0259058D01*
X0263414Y0256816D01*
X0263414Y0254389D01*
X0264342Y0252147D01*
X0265887Y0250602D01*
X0264342Y0249058D01*
X0263414Y0246816D01*
X0263414Y0244389D01*
X0263988Y0243002D01*
X0263414Y0244411D02*
X0235614Y0244411D01*
X0235119Y0248009D02*
X0263908Y0248009D01*
X0264882Y0251608D02*
X0234146Y0251608D01*
X0235614Y0266002D02*
X0263414Y0266002D01*
X0264236Y0262403D02*
X0252827Y0262403D01*
X0252828Y0258805D02*
X0264238Y0258805D01*
X0263414Y0255206D02*
X0252994Y0255206D01*
X0264885Y0269600D02*
X0234143Y0269600D01*
X0235121Y0273199D02*
X0263907Y0273199D01*
X0263414Y0276797D02*
X0235614Y0276797D01*
X0233406Y0280396D02*
X0265622Y0280396D01*
X0263215Y0283994D02*
X0235812Y0283994D01*
X0235710Y0287593D02*
X0263318Y0287593D01*
X0263014Y0285602D02*
X0269514Y0285602D01*
X0263014Y0285602D01*
X0269514Y0285602D02*
X0269514Y0285602D01*
X0254337Y0289748D02*
X0254337Y0289748D01*
X0244691Y0289748D02*
X0244691Y0289748D01*
X0207592Y0285602D02*
X0207592Y0285602D01*
X0201092Y0285602D01*
X0201092Y0285176D01*
X0201204Y0284332D01*
X0201424Y0283509D01*
X0201750Y0282721D01*
X0202176Y0281983D01*
X0202695Y0281307D01*
X0203298Y0280705D01*
X0203734Y0280370D01*
X0202421Y0279058D01*
X0201492Y0276816D01*
X0201492Y0274389D01*
X0202421Y0272147D01*
X0203966Y0270602D01*
X0202421Y0269058D01*
X0201492Y0266816D01*
X0201492Y0264389D01*
X0202421Y0262147D01*
X0203966Y0260602D01*
X0202421Y0259058D01*
X0201492Y0256816D01*
X0201492Y0254389D01*
X0202421Y0252147D01*
X0203966Y0250602D01*
X0202421Y0249058D01*
X0201492Y0246816D01*
X0201492Y0244389D01*
X0202067Y0243002D01*
X0173118Y0243002D01*
X0173692Y0244389D01*
X0173692Y0246816D01*
X0172764Y0249058D01*
X0171219Y0250602D01*
X0172764Y0252147D01*
X0173201Y0253202D01*
X0186002Y0253202D01*
X0186847Y0252852D01*
X0188338Y0252852D01*
X0189717Y0253423D01*
X0190772Y0254478D01*
X0191342Y0255856D01*
X0191342Y0257348D01*
X0190823Y0258602D01*
X0191342Y0259856D01*
X0191342Y0261348D01*
X0190772Y0262727D01*
X0189717Y0263781D01*
X0188338Y0264352D01*
X0186847Y0264352D01*
X0186002Y0264002D01*
X0174001Y0264002D01*
X0173670Y0264334D01*
X0173692Y0264389D01*
X0173692Y0266816D01*
X0172764Y0269058D01*
X0171219Y0270602D01*
X0172764Y0272147D01*
X0173692Y0274389D01*
X0173692Y0276816D01*
X0172764Y0279058D01*
X0171451Y0280370D01*
X0171887Y0280705D01*
X0172490Y0281307D01*
X0173009Y0281983D01*
X0173435Y0282721D01*
X0173761Y0283509D01*
X0173981Y0284332D01*
X0174092Y0285176D01*
X0174092Y0285602D01*
X0167593Y0285602D01*
X0167593Y0285602D01*
X0174092Y0285602D01*
X0174092Y0286028D01*
X0173981Y0286873D01*
X0173761Y0287696D01*
X0173435Y0288483D01*
X0173009Y0289221D01*
X0172490Y0289897D01*
X0171887Y0290500D01*
X0171754Y0290602D01*
X0181751Y0290602D01*
X0182769Y0289748D01*
X0182769Y0289748D01*
X0185917Y0288602D01*
X0189268Y0288602D01*
X0192416Y0289748D01*
X0193434Y0290602D01*
X0203431Y0290602D01*
X0203298Y0290500D01*
X0202695Y0289897D01*
X0202176Y0289221D01*
X0201750Y0288483D01*
X0201424Y0287696D01*
X0201204Y0286873D01*
X0201092Y0286028D01*
X0201092Y0285602D01*
X0207592Y0285602D01*
X0203700Y0280396D02*
X0171485Y0280396D01*
X0173891Y0283994D02*
X0201294Y0283994D01*
X0201397Y0287593D02*
X0173788Y0287593D01*
X0173692Y0276797D02*
X0201492Y0276797D01*
X0201986Y0273199D02*
X0173199Y0273199D01*
X0172221Y0269600D02*
X0202964Y0269600D01*
X0201492Y0266002D02*
X0173692Y0266002D01*
X0172224Y0251608D02*
X0202960Y0251608D01*
X0201987Y0248009D02*
X0173198Y0248009D01*
X0173692Y0244411D02*
X0201492Y0244411D01*
X0201492Y0255206D02*
X0191073Y0255206D01*
X0190907Y0258805D02*
X0202316Y0258805D01*
X0202315Y0262403D02*
X0190906Y0262403D01*
X0192416Y0289748D02*
X0192416Y0289748D01*
X0145671Y0285602D02*
X0145671Y0285602D01*
X0139171Y0285602D01*
X0139171Y0285176D01*
X0139283Y0284332D01*
X0139503Y0283509D01*
X0139829Y0282721D01*
X0140255Y0281983D01*
X0140774Y0281307D01*
X0141376Y0280705D01*
X0141813Y0280370D01*
X0140500Y0279058D01*
X0139571Y0276816D01*
X0139571Y0274389D01*
X0140500Y0272147D01*
X0142045Y0270602D01*
X0140500Y0269058D01*
X0139571Y0266816D01*
X0139571Y0264389D01*
X0140500Y0262147D01*
X0142045Y0260602D01*
X0140500Y0259058D01*
X0139571Y0256816D01*
X0139571Y0254389D01*
X0140500Y0252147D01*
X0142045Y0250602D01*
X0140500Y0249058D01*
X0139571Y0246816D01*
X0139571Y0244389D01*
X0140146Y0243002D01*
X0111197Y0243002D01*
X0111771Y0244389D01*
X0111771Y0246816D01*
X0110843Y0249058D01*
X0109298Y0250602D01*
X0110843Y0252147D01*
X0111280Y0253202D01*
X0124080Y0253202D01*
X0124925Y0252852D01*
X0126417Y0252852D01*
X0127795Y0253423D01*
X0128850Y0254478D01*
X0129421Y0255856D01*
X0129421Y0257348D01*
X0128902Y0258602D01*
X0129421Y0259856D01*
X0129421Y0261348D01*
X0128850Y0262727D01*
X0127795Y0263781D01*
X0126417Y0264352D01*
X0124925Y0264352D01*
X0124080Y0264002D01*
X0112080Y0264002D01*
X0111748Y0264334D01*
X0111771Y0264389D01*
X0111771Y0266816D01*
X0110843Y0269058D01*
X0109298Y0270602D01*
X0110843Y0272147D01*
X0111771Y0274389D01*
X0111771Y0276816D01*
X0110843Y0279058D01*
X0109530Y0280370D01*
X0109966Y0280705D01*
X0110569Y0281307D01*
X0111087Y0281983D01*
X0111513Y0282721D01*
X0111840Y0283509D01*
X0112060Y0284332D01*
X0112171Y0285176D01*
X0112171Y0285602D01*
X0105671Y0285602D01*
X0105671Y0285602D01*
X0112171Y0285602D01*
X0112171Y0286028D01*
X0112060Y0286873D01*
X0111840Y0287696D01*
X0111513Y0288483D01*
X0111087Y0289221D01*
X0110569Y0289897D01*
X0109966Y0290500D01*
X0109833Y0290602D01*
X0119830Y0290602D01*
X0120848Y0289748D01*
X0123996Y0288602D01*
X0127346Y0288602D01*
X0130495Y0289748D01*
X0131512Y0290602D01*
X0141510Y0290602D01*
X0141376Y0290500D01*
X0140774Y0289897D01*
X0140255Y0289221D01*
X0139829Y0288483D01*
X0139503Y0287696D01*
X0139283Y0286873D01*
X0139171Y0286028D01*
X0139171Y0285602D01*
X0145671Y0285602D01*
X0141779Y0280396D02*
X0109563Y0280396D01*
X0111970Y0283994D02*
X0139373Y0283994D01*
X0139475Y0287593D02*
X0111867Y0287593D01*
X0120848Y0289748D02*
X0120848Y0289748D01*
X0130495Y0289748D02*
X0130495Y0289748D01*
X0139571Y0276797D02*
X0111771Y0276797D01*
X0111278Y0273199D02*
X0140064Y0273199D01*
X0141042Y0269600D02*
X0110300Y0269600D01*
X0111771Y0266002D02*
X0139571Y0266002D01*
X0140394Y0262403D02*
X0128984Y0262403D01*
X0128986Y0258805D02*
X0140395Y0258805D01*
X0139571Y0255206D02*
X0129152Y0255206D01*
X0141039Y0251608D02*
X0110303Y0251608D01*
X0111277Y0248009D02*
X0140066Y0248009D01*
X0139571Y0244411D02*
X0111771Y0244411D01*
X0109833Y0219902D02*
X0119830Y0219902D01*
X0120848Y0219047D01*
X0123996Y0217902D01*
X0127346Y0217902D01*
X0130495Y0219047D01*
X0131512Y0219902D01*
X0141510Y0219902D01*
X0141376Y0219799D01*
X0140774Y0219197D01*
X0140255Y0218521D01*
X0139829Y0217783D01*
X0139503Y0216995D01*
X0139283Y0216172D01*
X0139171Y0215328D01*
X0139171Y0214902D01*
X0145671Y0214902D01*
X0145671Y0214902D01*
X0139171Y0214902D01*
X0139171Y0214476D01*
X0139283Y0213631D01*
X0139503Y0212808D01*
X0139829Y0212021D01*
X0140255Y0211283D01*
X0140774Y0210607D01*
X0141376Y0210004D01*
X0141813Y0209669D01*
X0140500Y0208357D01*
X0139571Y0206115D01*
X0139571Y0203688D01*
X0140500Y0201446D01*
X0142045Y0199902D01*
X0140500Y0198357D01*
X0139571Y0196115D01*
X0139571Y0193688D01*
X0140500Y0191446D01*
X0142045Y0189902D01*
X0140500Y0188357D01*
X0139571Y0186115D01*
X0139571Y0183688D01*
X0140500Y0181446D01*
X0142045Y0179902D01*
X0140500Y0178357D01*
X0139571Y0176115D01*
X0139571Y0173688D01*
X0140146Y0172302D01*
X0111197Y0172302D01*
X0111771Y0173688D01*
X0111771Y0176115D01*
X0110843Y0178357D01*
X0109298Y0179902D01*
X0110843Y0181446D01*
X0111280Y0182502D01*
X0124080Y0182502D01*
X0124925Y0182152D01*
X0126417Y0182152D01*
X0127795Y0182723D01*
X0128850Y0183777D01*
X0129421Y0185156D01*
X0129421Y0186648D01*
X0128902Y0187902D01*
X0129421Y0189156D01*
X0129421Y0190648D01*
X0128850Y0192026D01*
X0127795Y0193081D01*
X0126417Y0193652D01*
X0124925Y0193652D01*
X0124080Y0193302D01*
X0112080Y0193302D01*
X0111748Y0193633D01*
X0111771Y0193688D01*
X0111771Y0196115D01*
X0110843Y0198357D01*
X0109298Y0199902D01*
X0110843Y0201446D01*
X0111771Y0203688D01*
X0111771Y0206115D01*
X0110843Y0208357D01*
X0109530Y0209669D01*
X0109966Y0210004D01*
X0110569Y0210607D01*
X0111087Y0211283D01*
X0111513Y0212021D01*
X0111840Y0212808D01*
X0112060Y0213631D01*
X0112171Y0214476D01*
X0112171Y0214902D01*
X0112171Y0215328D01*
X0112060Y0216172D01*
X0111840Y0216995D01*
X0111513Y0217783D01*
X0111087Y0218521D01*
X0110569Y0219197D01*
X0109966Y0219799D01*
X0109833Y0219902D01*
X0110544Y0219221D02*
X0120641Y0219221D01*
X0120848Y0219047D02*
X0120848Y0219047D01*
X0130495Y0219047D02*
X0130495Y0219047D01*
X0130702Y0219221D02*
X0140798Y0219221D01*
X0139210Y0215623D02*
X0112132Y0215623D01*
X0112171Y0214902D02*
X0105671Y0214902D01*
X0105671Y0214902D01*
X0112171Y0214902D01*
X0111515Y0212024D02*
X0139828Y0212024D01*
X0140569Y0208426D02*
X0110774Y0208426D01*
X0111771Y0204827D02*
X0139571Y0204827D01*
X0140718Y0201229D02*
X0110625Y0201229D01*
X0111144Y0197630D02*
X0140199Y0197630D01*
X0139571Y0194032D02*
X0111771Y0194032D01*
X0109562Y0179637D02*
X0141780Y0179637D01*
X0139759Y0183236D02*
X0128309Y0183236D01*
X0129344Y0186834D02*
X0139869Y0186834D01*
X0141513Y0190433D02*
X0129421Y0190433D01*
X0139571Y0176039D02*
X0111771Y0176039D01*
X0111254Y0172440D02*
X0140088Y0172440D01*
X0141510Y0149201D02*
X0131512Y0149201D01*
X0130495Y0148347D01*
X0130495Y0148347D01*
X0127346Y0147201D01*
X0123996Y0147201D01*
X0120848Y0148347D01*
X0120848Y0148347D01*
X0119830Y0149201D01*
X0109833Y0149201D01*
X0109966Y0149098D01*
X0110569Y0148496D01*
X0111087Y0147820D01*
X0111513Y0147082D01*
X0111840Y0146295D01*
X0112060Y0145472D01*
X0112171Y0144627D01*
X0112171Y0144201D01*
X0105671Y0144201D01*
X0105671Y0144201D01*
X0112171Y0144201D01*
X0112171Y0143775D01*
X0112060Y0142930D01*
X0111840Y0142107D01*
X0111513Y0141320D01*
X0111087Y0140582D01*
X0110569Y0139906D01*
X0109966Y0139303D01*
X0109530Y0138969D01*
X0110843Y0137656D01*
X0111771Y0135414D01*
X0111771Y0132987D01*
X0110843Y0130745D01*
X0109298Y0129201D01*
X0110843Y0127656D01*
X0111771Y0125414D01*
X0111771Y0122987D01*
X0111748Y0122932D01*
X0112080Y0122601D01*
X0124080Y0122601D01*
X0124925Y0122951D01*
X0126417Y0122951D01*
X0127795Y0122380D01*
X0128850Y0121325D01*
X0129421Y0119947D01*
X0129421Y0118455D01*
X0128902Y0117201D01*
X0129421Y0115947D01*
X0129421Y0114455D01*
X0128850Y0113077D01*
X0127795Y0112022D01*
X0126417Y0111451D01*
X0124925Y0111451D01*
X0124080Y0111801D01*
X0111280Y0111801D01*
X0110843Y0110745D01*
X0109298Y0109201D01*
X0110843Y0107656D01*
X0111771Y0105414D01*
X0111771Y0102987D01*
X0111197Y0101601D01*
X0140146Y0101601D01*
X0139571Y0102987D01*
X0139571Y0105414D01*
X0140500Y0107656D01*
X0142045Y0109201D01*
X0140500Y0110745D01*
X0139571Y0112987D01*
X0139571Y0115414D01*
X0140500Y0117656D01*
X0142045Y0119201D01*
X0140500Y0120745D01*
X0139571Y0122987D01*
X0139571Y0125414D01*
X0140500Y0127656D01*
X0142045Y0129201D01*
X0140500Y0130745D01*
X0139571Y0132987D01*
X0139571Y0135414D01*
X0140500Y0137656D01*
X0141813Y0138969D01*
X0141376Y0139303D01*
X0140774Y0139906D01*
X0140255Y0140582D01*
X0139829Y0141320D01*
X0139503Y0142107D01*
X0139283Y0142930D01*
X0139171Y0143775D01*
X0139171Y0144201D01*
X0145671Y0144201D01*
X0145671Y0144201D01*
X0139171Y0144201D01*
X0139171Y0144627D01*
X0139283Y0145472D01*
X0139503Y0146295D01*
X0139829Y0147082D01*
X0140255Y0147820D01*
X0140774Y0148496D01*
X0141376Y0149098D01*
X0141510Y0149201D01*
X0139927Y0147251D02*
X0127484Y0147251D01*
X0123859Y0147251D02*
X0111416Y0147251D01*
X0112155Y0143652D02*
X0139187Y0143652D01*
X0140660Y0140054D02*
X0110682Y0140054D01*
X0111340Y0136455D02*
X0140003Y0136455D01*
X0139625Y0132857D02*
X0111717Y0132857D01*
X0109356Y0129258D02*
X0141987Y0129258D01*
X0139673Y0125660D02*
X0111670Y0125660D01*
X0111058Y0111266D02*
X0140284Y0111266D01*
X0140511Y0107667D02*
X0110832Y0107667D01*
X0111771Y0104069D02*
X0139571Y0104069D01*
X0139571Y0114864D02*
X0129421Y0114864D01*
X0129421Y0118463D02*
X0141307Y0118463D01*
X0139955Y0122061D02*
X0128114Y0122061D01*
X0167593Y0144201D02*
X0167593Y0144201D01*
X0174092Y0144201D01*
X0174092Y0144627D01*
X0173981Y0145472D01*
X0173761Y0146295D01*
X0173435Y0147082D01*
X0173009Y0147820D01*
X0172490Y0148496D01*
X0171887Y0149098D01*
X0171754Y0149201D01*
X0181751Y0149201D01*
X0182769Y0148347D01*
X0185917Y0147201D01*
X0189268Y0147201D01*
X0192416Y0148347D01*
X0193434Y0149201D01*
X0203431Y0149201D01*
X0203298Y0149098D01*
X0202695Y0148496D01*
X0202176Y0147820D01*
X0201750Y0147082D01*
X0201424Y0146295D01*
X0201204Y0145472D01*
X0201092Y0144627D01*
X0201092Y0144201D01*
X0207592Y0144201D01*
X0207592Y0144201D01*
X0201092Y0144201D01*
X0201092Y0143775D01*
X0201204Y0142930D01*
X0201424Y0142107D01*
X0201750Y0141320D01*
X0202176Y0140582D01*
X0202695Y0139906D01*
X0203298Y0139303D01*
X0203734Y0138969D01*
X0202421Y0137656D01*
X0201492Y0135414D01*
X0201492Y0132987D01*
X0202421Y0130745D01*
X0203966Y0129201D01*
X0202421Y0127656D01*
X0201492Y0125414D01*
X0201492Y0122987D01*
X0202421Y0120745D01*
X0203966Y0119201D01*
X0202421Y0117656D01*
X0201492Y0115414D01*
X0201492Y0112987D01*
X0202421Y0110745D01*
X0203966Y0109201D01*
X0202421Y0107656D01*
X0201492Y0105414D01*
X0201492Y0102987D01*
X0202067Y0101601D01*
X0173118Y0101601D01*
X0173692Y0102987D01*
X0173692Y0105414D01*
X0172764Y0107656D01*
X0171219Y0109201D01*
X0172764Y0110745D01*
X0173201Y0111801D01*
X0186002Y0111801D01*
X0186847Y0111451D01*
X0188338Y0111451D01*
X0189717Y0112022D01*
X0190772Y0113077D01*
X0191342Y0114455D01*
X0191342Y0115947D01*
X0190823Y0117201D01*
X0191342Y0118455D01*
X0191342Y0119947D01*
X0190772Y0121325D01*
X0189717Y0122380D01*
X0188338Y0122951D01*
X0186847Y0122951D01*
X0186002Y0122601D01*
X0174001Y0122601D01*
X0173670Y0122932D01*
X0173692Y0122987D01*
X0173692Y0125414D01*
X0172764Y0127656D01*
X0171219Y0129201D01*
X0172764Y0130745D01*
X0173692Y0132987D01*
X0173692Y0135414D01*
X0172764Y0137656D01*
X0171451Y0138969D01*
X0171887Y0139303D01*
X0172490Y0139906D01*
X0173009Y0140582D01*
X0173435Y0141320D01*
X0173761Y0142107D01*
X0173981Y0142930D01*
X0174092Y0143775D01*
X0174092Y0144201D01*
X0167593Y0144201D01*
X0173337Y0147251D02*
X0185780Y0147251D01*
X0182769Y0148347D02*
X0182769Y0148347D01*
X0189405Y0147251D02*
X0201848Y0147251D01*
X0201109Y0143652D02*
X0174076Y0143652D01*
X0172603Y0140054D02*
X0202581Y0140054D01*
X0201924Y0136455D02*
X0173261Y0136455D01*
X0173638Y0132857D02*
X0201547Y0132857D01*
X0203908Y0129258D02*
X0171277Y0129258D01*
X0173591Y0125660D02*
X0201594Y0125660D01*
X0201876Y0122061D02*
X0190035Y0122061D01*
X0191342Y0118463D02*
X0203228Y0118463D01*
X0201492Y0114864D02*
X0191342Y0114864D01*
X0202206Y0111266D02*
X0172979Y0111266D01*
X0172753Y0107667D02*
X0202432Y0107667D01*
X0201492Y0104069D02*
X0173692Y0104069D01*
X0171754Y0078500D02*
X0181751Y0078500D01*
X0182769Y0077646D01*
X0182769Y0077646D01*
X0185917Y0076500D01*
X0189268Y0076500D01*
X0192416Y0077646D01*
X0193434Y0078500D01*
X0203431Y0078500D01*
X0203298Y0078397D01*
X0202695Y0077795D01*
X0202176Y0077119D01*
X0201750Y0076381D01*
X0201424Y0075594D01*
X0201204Y0074771D01*
X0201092Y0073926D01*
X0201092Y0073500D01*
X0201092Y0073074D01*
X0201204Y0072229D01*
X0201424Y0071406D01*
X0201750Y0070619D01*
X0202176Y0069881D01*
X0202695Y0069205D01*
X0203298Y0068603D01*
X0203734Y0068268D01*
X0202421Y0066955D01*
X0201492Y0064713D01*
X0201492Y0062287D01*
X0202421Y0060045D01*
X0203966Y0058500D01*
X0202421Y0056955D01*
X0201492Y0054713D01*
X0201492Y0052287D01*
X0202421Y0050045D01*
X0203966Y0048500D01*
X0202421Y0046955D01*
X0201492Y0044713D01*
X0201492Y0042287D01*
X0202421Y0040045D01*
X0203966Y0038500D01*
X0202421Y0036955D01*
X0201492Y0034713D01*
X0201492Y0032287D01*
X0202067Y0030900D01*
X0173118Y0030900D01*
X0173692Y0032287D01*
X0173692Y0034713D01*
X0172764Y0036955D01*
X0171219Y0038500D01*
X0172764Y0040045D01*
X0173201Y0041100D01*
X0186002Y0041100D01*
X0186847Y0040750D01*
X0188338Y0040750D01*
X0189717Y0041321D01*
X0190772Y0042376D01*
X0191342Y0043754D01*
X0191342Y0045246D01*
X0190823Y0046500D01*
X0191342Y0047754D01*
X0191342Y0049246D01*
X0190772Y0050624D01*
X0189717Y0051679D01*
X0188338Y0052250D01*
X0186847Y0052250D01*
X0186002Y0051900D01*
X0174001Y0051900D01*
X0173670Y0052231D01*
X0173692Y0052287D01*
X0173692Y0054713D01*
X0172764Y0056955D01*
X0171219Y0058500D01*
X0172764Y0060045D01*
X0173692Y0062287D01*
X0173692Y0064713D01*
X0172764Y0066955D01*
X0171451Y0068268D01*
X0171887Y0068603D01*
X0172490Y0069205D01*
X0173009Y0069881D01*
X0173435Y0070619D01*
X0173761Y0071406D01*
X0173981Y0072229D01*
X0174092Y0073074D01*
X0174092Y0073500D01*
X0167593Y0073500D01*
X0174092Y0073500D01*
X0174092Y0073926D01*
X0173981Y0074771D01*
X0173761Y0075594D01*
X0173435Y0076381D01*
X0173009Y0077119D01*
X0172490Y0077795D01*
X0171887Y0078397D01*
X0171754Y0078500D01*
X0173845Y0075281D02*
X0201340Y0075281D01*
X0201092Y0073500D02*
X0207592Y0073500D01*
X0201092Y0073500D01*
X0201350Y0071682D02*
X0173835Y0071682D01*
X0171636Y0068084D02*
X0203549Y0068084D01*
X0201492Y0064485D02*
X0173692Y0064485D01*
X0173113Y0060887D02*
X0202072Y0060887D01*
X0202754Y0057288D02*
X0172431Y0057288D01*
X0173692Y0053690D02*
X0201492Y0053690D01*
X0202402Y0050091D02*
X0190992Y0050091D01*
X0190826Y0046493D02*
X0202229Y0046493D01*
X0201492Y0042894D02*
X0190986Y0042894D01*
X0203170Y0039296D02*
X0172015Y0039296D01*
X0173285Y0035697D02*
X0201900Y0035697D01*
X0201570Y0032099D02*
X0173615Y0032099D01*
X0142045Y0038500D02*
X0140500Y0036955D01*
X0139571Y0034713D01*
X0139571Y0032287D01*
X0140146Y0030900D01*
X0111197Y0030900D01*
X0111771Y0032287D01*
X0111771Y0034713D01*
X0110843Y0036955D01*
X0109298Y0038500D01*
X0110843Y0040045D01*
X0111280Y0041100D01*
X0124080Y0041100D01*
X0124925Y0040750D01*
X0126417Y0040750D01*
X0127795Y0041321D01*
X0128850Y0042376D01*
X0129421Y0043754D01*
X0129421Y0045246D01*
X0128902Y0046500D01*
X0129421Y0047754D01*
X0129421Y0049246D01*
X0128850Y0050624D01*
X0127795Y0051679D01*
X0126417Y0052250D01*
X0124925Y0052250D01*
X0124080Y0051900D01*
X0112080Y0051900D01*
X0111748Y0052231D01*
X0111771Y0052287D01*
X0111771Y0054713D01*
X0110843Y0056955D01*
X0109298Y0058500D01*
X0110843Y0060045D01*
X0111771Y0062287D01*
X0111771Y0064713D01*
X0110843Y0066955D01*
X0109530Y0068268D01*
X0109966Y0068603D01*
X0110569Y0069205D01*
X0111087Y0069881D01*
X0111513Y0070619D01*
X0111840Y0071406D01*
X0112060Y0072229D01*
X0112171Y0073074D01*
X0112171Y0073500D01*
X0105671Y0073500D01*
X0112171Y0073500D01*
X0112171Y0073926D01*
X0112060Y0074771D01*
X0111840Y0075594D01*
X0111513Y0076381D01*
X0111087Y0077119D01*
X0110569Y0077795D01*
X0109966Y0078397D01*
X0109833Y0078500D01*
X0119830Y0078500D01*
X0120848Y0077646D01*
X0123996Y0076500D01*
X0127346Y0076500D01*
X0130495Y0077646D01*
X0131512Y0078500D01*
X0141510Y0078500D01*
X0141376Y0078397D01*
X0140774Y0077795D01*
X0140255Y0077119D01*
X0139829Y0076381D01*
X0139503Y0075594D01*
X0139283Y0074771D01*
X0139171Y0073926D01*
X0139171Y0073500D01*
X0139171Y0073074D01*
X0139283Y0072229D01*
X0139503Y0071406D01*
X0139829Y0070619D01*
X0140255Y0069881D01*
X0140774Y0069205D01*
X0141376Y0068603D01*
X0141813Y0068268D01*
X0140500Y0066955D01*
X0139571Y0064713D01*
X0139571Y0062287D01*
X0140500Y0060045D01*
X0142045Y0058500D01*
X0140500Y0056955D01*
X0139571Y0054713D01*
X0139571Y0052287D01*
X0140500Y0050045D01*
X0142045Y0048500D01*
X0140500Y0046955D01*
X0139571Y0044713D01*
X0139571Y0042287D01*
X0140500Y0040045D01*
X0142045Y0038500D01*
X0141249Y0039296D02*
X0110094Y0039296D01*
X0111364Y0035697D02*
X0139979Y0035697D01*
X0139649Y0032099D02*
X0111693Y0032099D01*
X0129065Y0042894D02*
X0139571Y0042894D01*
X0140308Y0046493D02*
X0128905Y0046493D01*
X0129071Y0050091D02*
X0140481Y0050091D01*
X0139571Y0053690D02*
X0111771Y0053690D01*
X0110510Y0057288D02*
X0140833Y0057288D01*
X0140151Y0060887D02*
X0111191Y0060887D01*
X0111771Y0064485D02*
X0139571Y0064485D01*
X0141628Y0068084D02*
X0109714Y0068084D01*
X0111913Y0071682D02*
X0139429Y0071682D01*
X0139171Y0073500D02*
X0145671Y0073500D01*
X0145671Y0073500D01*
X0139171Y0073500D01*
X0139419Y0075281D02*
X0111923Y0075281D01*
X0105671Y0073500D02*
X0105671Y0073500D01*
X0120848Y0077646D02*
X0120848Y0077646D01*
X0130495Y0077646D02*
X0130495Y0077646D01*
X0167593Y0073500D02*
X0167593Y0073500D01*
X0192416Y0077646D02*
X0192416Y0077646D01*
X0207592Y0073500D02*
X0207592Y0073500D01*
X0192416Y0148347D02*
X0192416Y0148347D01*
X0202067Y0172302D02*
X0173118Y0172302D01*
X0173692Y0173688D01*
X0173692Y0176115D01*
X0172764Y0178357D01*
X0171219Y0179902D01*
X0172764Y0181446D01*
X0173201Y0182502D01*
X0186002Y0182502D01*
X0186847Y0182152D01*
X0188338Y0182152D01*
X0189717Y0182723D01*
X0190772Y0183777D01*
X0191342Y0185156D01*
X0191342Y0186648D01*
X0190823Y0187902D01*
X0191342Y0189156D01*
X0191342Y0190648D01*
X0190772Y0192026D01*
X0189717Y0193081D01*
X0188338Y0193652D01*
X0186847Y0193652D01*
X0186002Y0193302D01*
X0174001Y0193302D01*
X0173670Y0193633D01*
X0173692Y0193688D01*
X0173692Y0196115D01*
X0172764Y0198357D01*
X0171219Y0199902D01*
X0172764Y0201446D01*
X0173692Y0203688D01*
X0173692Y0206115D01*
X0172764Y0208357D01*
X0171451Y0209669D01*
X0171887Y0210004D01*
X0172490Y0210607D01*
X0173009Y0211283D01*
X0173435Y0212021D01*
X0173761Y0212808D01*
X0173981Y0213631D01*
X0174092Y0214476D01*
X0174092Y0214902D01*
X0174092Y0215328D01*
X0173981Y0216172D01*
X0173761Y0216995D01*
X0173435Y0217783D01*
X0173009Y0218521D01*
X0172490Y0219197D01*
X0171887Y0219799D01*
X0171754Y0219902D01*
X0181751Y0219902D01*
X0182769Y0219047D01*
X0185917Y0217902D01*
X0189268Y0217902D01*
X0192416Y0219047D01*
X0193434Y0219902D01*
X0203431Y0219902D01*
X0203298Y0219799D01*
X0202695Y0219197D01*
X0202176Y0218521D01*
X0201750Y0217783D01*
X0201424Y0216995D01*
X0201204Y0216172D01*
X0201092Y0215328D01*
X0201092Y0214902D01*
X0207592Y0214902D01*
X0207592Y0214902D01*
X0201092Y0214902D01*
X0201092Y0214476D01*
X0201204Y0213631D01*
X0201424Y0212808D01*
X0201750Y0212021D01*
X0202176Y0211283D01*
X0202695Y0210607D01*
X0203298Y0210004D01*
X0203734Y0209669D01*
X0202421Y0208357D01*
X0201492Y0206115D01*
X0201492Y0203688D01*
X0202421Y0201446D01*
X0203966Y0199902D01*
X0202421Y0198357D01*
X0201492Y0196115D01*
X0201492Y0193688D01*
X0202421Y0191446D01*
X0203966Y0189902D01*
X0202421Y0188357D01*
X0201492Y0186115D01*
X0201492Y0183688D01*
X0202421Y0181446D01*
X0203966Y0179902D01*
X0202421Y0178357D01*
X0201492Y0176115D01*
X0201492Y0173688D01*
X0202067Y0172302D01*
X0202009Y0172440D02*
X0173176Y0172440D01*
X0173692Y0176039D02*
X0201492Y0176039D01*
X0203702Y0179637D02*
X0171483Y0179637D01*
X0173692Y0194032D02*
X0201492Y0194032D01*
X0202120Y0197630D02*
X0173065Y0197630D01*
X0172546Y0201229D02*
X0202639Y0201229D01*
X0201492Y0204827D02*
X0173692Y0204827D01*
X0172695Y0208426D02*
X0202490Y0208426D01*
X0201749Y0212024D02*
X0173436Y0212024D01*
X0174092Y0214902D02*
X0167593Y0214902D01*
X0174092Y0214902D01*
X0174054Y0215623D02*
X0201131Y0215623D01*
X0202720Y0219221D02*
X0192623Y0219221D01*
X0192416Y0219047D02*
X0192416Y0219047D01*
X0182769Y0219047D02*
X0182769Y0219047D01*
X0182562Y0219221D02*
X0172465Y0219221D01*
X0167593Y0214902D02*
X0167593Y0214902D01*
X0191342Y0190433D02*
X0203434Y0190433D01*
X0201791Y0186834D02*
X0191265Y0186834D01*
X0190230Y0183236D02*
X0201680Y0183236D01*
X0083750Y0214902D02*
X0077250Y0214902D01*
X0083750Y0214902D01*
X0083750Y0214902D01*
X0079891Y0209669D02*
X0078579Y0208357D01*
X0077650Y0206115D01*
X0077650Y0203688D01*
X0078579Y0201446D01*
X0080123Y0199902D01*
X0078579Y0198357D01*
X0077650Y0196115D01*
X0077650Y0193688D01*
X0078579Y0191446D01*
X0080123Y0189902D01*
X0078579Y0188357D01*
X0077650Y0186115D01*
X0077650Y0183688D01*
X0078579Y0181446D01*
X0080123Y0179902D01*
X0078579Y0178357D01*
X0077650Y0176115D01*
X0077650Y0173688D01*
X0078224Y0172302D01*
X0049276Y0172302D01*
X0049850Y0173688D01*
X0049850Y0176115D01*
X0048921Y0178357D01*
X0047377Y0179902D01*
X0048921Y0181446D01*
X0049358Y0182502D01*
X0062159Y0182502D01*
X0063004Y0182152D01*
X0064496Y0182152D01*
X0065874Y0182723D01*
X0066929Y0183777D01*
X0067500Y0185156D01*
X0067500Y0186648D01*
X0066981Y0187902D01*
X0067500Y0189156D01*
X0067500Y0190648D01*
X0066929Y0192026D01*
X0065874Y0193081D01*
X0064496Y0193652D01*
X0063004Y0193652D01*
X0062159Y0193302D01*
X0050158Y0193302D01*
X0049827Y0193633D01*
X0049850Y0193688D01*
X0049850Y0196115D01*
X0048921Y0198357D01*
X0047377Y0199902D01*
X0048921Y0201446D01*
X0049850Y0203688D01*
X0049850Y0206115D01*
X0048921Y0208357D01*
X0047609Y0209669D01*
X0048045Y0210004D01*
X0048647Y0210607D01*
X0049166Y0211283D01*
X0049592Y0212021D01*
X0049918Y0212808D01*
X0050139Y0213631D01*
X0050250Y0214476D01*
X0050250Y0214902D01*
X0050250Y0215328D01*
X0050139Y0216172D01*
X0049918Y0216995D01*
X0049592Y0217783D01*
X0049166Y0218521D01*
X0048647Y0219197D01*
X0048045Y0219799D01*
X0047911Y0219902D01*
X0057909Y0219902D01*
X0058927Y0219047D01*
X0062075Y0217902D01*
X0065425Y0217902D01*
X0068573Y0219047D01*
X0068573Y0219047D01*
X0069591Y0219902D01*
X0079589Y0219902D01*
X0079455Y0219799D01*
X0078853Y0219197D01*
X0078334Y0218521D01*
X0077908Y0217783D01*
X0077582Y0216995D01*
X0077361Y0216172D01*
X0077250Y0215328D01*
X0077250Y0214902D01*
X0077250Y0214476D01*
X0077361Y0213631D01*
X0077582Y0212808D01*
X0077908Y0212021D01*
X0078334Y0211283D01*
X0078853Y0210607D01*
X0079455Y0210004D01*
X0079891Y0209669D01*
X0078647Y0208426D02*
X0048853Y0208426D01*
X0049594Y0212024D02*
X0077906Y0212024D01*
X0077289Y0215623D02*
X0050211Y0215623D01*
X0050250Y0214902D02*
X0043750Y0214902D01*
X0043750Y0214902D01*
X0050250Y0214902D01*
X0048623Y0219221D02*
X0058720Y0219221D01*
X0068780Y0219221D02*
X0078877Y0219221D01*
X0077650Y0204827D02*
X0049850Y0204827D01*
X0048704Y0201229D02*
X0078796Y0201229D01*
X0078278Y0197630D02*
X0049222Y0197630D01*
X0049850Y0194032D02*
X0077650Y0194032D01*
X0079592Y0190433D02*
X0067500Y0190433D01*
X0067423Y0186834D02*
X0077948Y0186834D01*
X0077837Y0183236D02*
X0066388Y0183236D01*
X0077650Y0176039D02*
X0049850Y0176039D01*
X0049333Y0172440D02*
X0078167Y0172440D01*
X0079859Y0179637D02*
X0047641Y0179637D01*
X0047911Y0149201D02*
X0057909Y0149201D01*
X0058927Y0148347D01*
X0062075Y0147201D01*
X0065425Y0147201D01*
X0068573Y0148347D01*
X0068573Y0148347D01*
X0069591Y0149201D01*
X0079589Y0149201D01*
X0079455Y0149098D01*
X0078853Y0148496D01*
X0078334Y0147820D01*
X0077908Y0147082D01*
X0077582Y0146295D01*
X0077361Y0145472D01*
X0077250Y0144627D01*
X0077250Y0144201D01*
X0083750Y0144201D01*
X0083750Y0144201D01*
X0077250Y0144201D01*
X0077250Y0143775D01*
X0077361Y0142930D01*
X0077582Y0142107D01*
X0077908Y0141320D01*
X0078334Y0140582D01*
X0078853Y0139906D01*
X0079455Y0139303D01*
X0079891Y0138969D01*
X0078579Y0137656D01*
X0077650Y0135414D01*
X0077650Y0132987D01*
X0078579Y0130745D01*
X0080123Y0129201D01*
X0078579Y0127656D01*
X0077650Y0125414D01*
X0077650Y0122987D01*
X0078579Y0120745D01*
X0080123Y0119201D01*
X0078579Y0117656D01*
X0077650Y0115414D01*
X0077650Y0112987D01*
X0078579Y0110745D01*
X0080123Y0109201D01*
X0078579Y0107656D01*
X0077650Y0105414D01*
X0077650Y0102987D01*
X0078224Y0101601D01*
X0049276Y0101601D01*
X0049850Y0102987D01*
X0049850Y0105414D01*
X0048921Y0107656D01*
X0047377Y0109201D01*
X0048921Y0110745D01*
X0049358Y0111801D01*
X0062159Y0111801D01*
X0063004Y0111451D01*
X0064496Y0111451D01*
X0065874Y0112022D01*
X0066929Y0113077D01*
X0067500Y0114455D01*
X0067500Y0115947D01*
X0066981Y0117201D01*
X0067500Y0118455D01*
X0067500Y0119947D01*
X0066929Y0121325D01*
X0065874Y0122380D01*
X0064496Y0122951D01*
X0063004Y0122951D01*
X0062159Y0122601D01*
X0050158Y0122601D01*
X0049827Y0122932D01*
X0049850Y0122987D01*
X0049850Y0125414D01*
X0048921Y0127656D01*
X0047377Y0129201D01*
X0048921Y0130745D01*
X0049850Y0132987D01*
X0049850Y0135414D01*
X0048921Y0137656D01*
X0047609Y0138969D01*
X0048045Y0139303D01*
X0048647Y0139906D01*
X0049166Y0140582D01*
X0049592Y0141320D01*
X0049918Y0142107D01*
X0050139Y0142930D01*
X0050250Y0143775D01*
X0050250Y0144201D01*
X0050250Y0144627D01*
X0050139Y0145472D01*
X0049918Y0146295D01*
X0049592Y0147082D01*
X0049166Y0147820D01*
X0048647Y0148496D01*
X0048045Y0149098D01*
X0047911Y0149201D01*
X0049495Y0147251D02*
X0061937Y0147251D01*
X0058927Y0148347D02*
X0058927Y0148347D01*
X0065563Y0147251D02*
X0078005Y0147251D01*
X0077266Y0143652D02*
X0050234Y0143652D01*
X0050250Y0144201D02*
X0043750Y0144201D01*
X0050250Y0144201D01*
X0048761Y0140054D02*
X0078739Y0140054D01*
X0078081Y0136455D02*
X0049419Y0136455D01*
X0049796Y0132857D02*
X0077704Y0132857D01*
X0080066Y0129258D02*
X0047434Y0129258D01*
X0049748Y0125660D02*
X0077752Y0125660D01*
X0078034Y0122061D02*
X0066193Y0122061D01*
X0067500Y0118463D02*
X0079385Y0118463D01*
X0077650Y0114864D02*
X0067500Y0114864D01*
X0078363Y0111266D02*
X0049137Y0111266D01*
X0048910Y0107667D02*
X0078590Y0107667D01*
X0077650Y0104069D02*
X0049850Y0104069D01*
X0047911Y0078500D02*
X0057909Y0078500D01*
X0058927Y0077646D01*
X0062075Y0076500D01*
X0065425Y0076500D01*
X0068573Y0077646D01*
X0068573Y0077646D01*
X0069591Y0078500D01*
X0079589Y0078500D01*
X0079455Y0078397D01*
X0078853Y0077795D01*
X0078334Y0077119D01*
X0077908Y0076381D01*
X0077582Y0075594D01*
X0077361Y0074771D01*
X0077250Y0073926D01*
X0077250Y0073500D01*
X0083750Y0073500D01*
X0083750Y0073500D01*
X0077250Y0073500D01*
X0077250Y0073074D01*
X0077361Y0072229D01*
X0077582Y0071406D01*
X0077908Y0070619D01*
X0078334Y0069881D01*
X0078853Y0069205D01*
X0079455Y0068603D01*
X0079891Y0068268D01*
X0078579Y0066955D01*
X0077650Y0064713D01*
X0077650Y0062287D01*
X0078579Y0060045D01*
X0080123Y0058500D01*
X0078579Y0056955D01*
X0077650Y0054713D01*
X0077650Y0052287D01*
X0078579Y0050045D01*
X0080123Y0048500D01*
X0078579Y0046955D01*
X0077650Y0044713D01*
X0077650Y0042287D01*
X0078579Y0040045D01*
X0080123Y0038500D01*
X0078579Y0036955D01*
X0077650Y0034713D01*
X0077650Y0032287D01*
X0078224Y0030900D01*
X0049276Y0030900D01*
X0049850Y0032287D01*
X0049850Y0034713D01*
X0048921Y0036955D01*
X0047377Y0038500D01*
X0048921Y0040045D01*
X0049358Y0041100D01*
X0062159Y0041100D01*
X0063004Y0040750D01*
X0064496Y0040750D01*
X0065874Y0041321D01*
X0066929Y0042376D01*
X0067500Y0043754D01*
X0067500Y0045246D01*
X0066981Y0046500D01*
X0067500Y0047754D01*
X0067500Y0049246D01*
X0066929Y0050624D01*
X0065874Y0051679D01*
X0064496Y0052250D01*
X0063004Y0052250D01*
X0062159Y0051900D01*
X0050158Y0051900D01*
X0049827Y0052231D01*
X0049850Y0052287D01*
X0049850Y0054713D01*
X0048921Y0056955D01*
X0047377Y0058500D01*
X0048921Y0060045D01*
X0049850Y0062287D01*
X0049850Y0064713D01*
X0048921Y0066955D01*
X0047609Y0068268D01*
X0048045Y0068603D01*
X0048647Y0069205D01*
X0049166Y0069881D01*
X0049592Y0070619D01*
X0049918Y0071406D01*
X0050139Y0072229D01*
X0050250Y0073074D01*
X0050250Y0073500D01*
X0050250Y0073926D01*
X0050139Y0074771D01*
X0049918Y0075594D01*
X0049592Y0076381D01*
X0049166Y0077119D01*
X0048647Y0077795D01*
X0048045Y0078397D01*
X0047911Y0078500D01*
X0050002Y0075281D02*
X0077498Y0075281D01*
X0077508Y0071682D02*
X0049992Y0071682D01*
X0050250Y0073500D02*
X0043750Y0073500D01*
X0050250Y0073500D01*
X0047793Y0068084D02*
X0079707Y0068084D01*
X0077650Y0064485D02*
X0049850Y0064485D01*
X0049270Y0060887D02*
X0078230Y0060887D01*
X0078911Y0057288D02*
X0048589Y0057288D01*
X0049850Y0053690D02*
X0077650Y0053690D01*
X0078559Y0050091D02*
X0067150Y0050091D01*
X0066984Y0046493D02*
X0078387Y0046493D01*
X0077650Y0042894D02*
X0067144Y0042894D01*
X0079328Y0039296D02*
X0048172Y0039296D01*
X0049443Y0035697D02*
X0078057Y0035697D01*
X0077728Y0032099D02*
X0049772Y0032099D01*
X0043750Y0073500D02*
X0043750Y0073500D01*
X0058927Y0077646D02*
X0058927Y0077646D01*
X0043750Y0144201D02*
X0043750Y0144201D01*
X0049276Y0243002D02*
X0049850Y0244389D01*
X0049850Y0246816D01*
X0048921Y0249058D01*
X0047377Y0250602D01*
X0048921Y0252147D01*
X0049358Y0253202D01*
X0062159Y0253202D01*
X0063004Y0252852D01*
X0064496Y0252852D01*
X0065874Y0253423D01*
X0066929Y0254478D01*
X0067500Y0255856D01*
X0067500Y0257348D01*
X0066981Y0258602D01*
X0067500Y0259856D01*
X0067500Y0261348D01*
X0066929Y0262727D01*
X0065874Y0263781D01*
X0064496Y0264352D01*
X0063004Y0264352D01*
X0062159Y0264002D01*
X0050158Y0264002D01*
X0049827Y0264334D01*
X0049850Y0264389D01*
X0049850Y0266816D01*
X0048921Y0269058D01*
X0047377Y0270602D01*
X0048921Y0272147D01*
X0049850Y0274389D01*
X0049850Y0276816D01*
X0048921Y0279058D01*
X0047609Y0280370D01*
X0048045Y0280705D01*
X0048647Y0281307D01*
X0049166Y0281983D01*
X0049592Y0282721D01*
X0049918Y0283509D01*
X0050139Y0284332D01*
X0050250Y0285176D01*
X0050250Y0285602D01*
X0043750Y0285602D01*
X0043750Y0285602D01*
X0050250Y0285602D01*
X0050250Y0286028D01*
X0050139Y0286873D01*
X0049918Y0287696D01*
X0049592Y0288483D01*
X0049166Y0289221D01*
X0048647Y0289897D01*
X0048045Y0290500D01*
X0047911Y0290602D01*
X0057909Y0290602D01*
X0058927Y0289748D01*
X0062075Y0288602D01*
X0065425Y0288602D01*
X0068573Y0289748D01*
X0069591Y0290602D01*
X0079589Y0290602D01*
X0079455Y0290500D01*
X0078853Y0289897D01*
X0078334Y0289221D01*
X0077908Y0288483D01*
X0077582Y0287696D01*
X0077361Y0286873D01*
X0077250Y0286028D01*
X0077250Y0285602D01*
X0077250Y0285176D01*
X0077361Y0284332D01*
X0077582Y0283509D01*
X0077908Y0282721D01*
X0078334Y0281983D01*
X0078853Y0281307D01*
X0079455Y0280705D01*
X0079891Y0280370D01*
X0078579Y0279058D01*
X0077650Y0276816D01*
X0077650Y0274389D01*
X0078579Y0272147D01*
X0080123Y0270602D01*
X0078579Y0269058D01*
X0077650Y0266816D01*
X0077650Y0264389D01*
X0078579Y0262147D01*
X0080123Y0260602D01*
X0078579Y0259058D01*
X0077650Y0256816D01*
X0077650Y0254389D01*
X0078579Y0252147D01*
X0080123Y0250602D01*
X0078579Y0249058D01*
X0077650Y0246816D01*
X0077650Y0244389D01*
X0078224Y0243002D01*
X0049276Y0243002D01*
X0049850Y0244411D02*
X0077650Y0244411D01*
X0078144Y0248009D02*
X0049356Y0248009D01*
X0048382Y0251608D02*
X0079118Y0251608D01*
X0077650Y0255206D02*
X0067231Y0255206D01*
X0067064Y0258805D02*
X0078474Y0258805D01*
X0078473Y0262403D02*
X0067063Y0262403D01*
X0077650Y0266002D02*
X0049850Y0266002D01*
X0048379Y0269600D02*
X0079121Y0269600D01*
X0078143Y0273199D02*
X0049357Y0273199D01*
X0049850Y0276797D02*
X0077650Y0276797D01*
X0079858Y0280396D02*
X0047642Y0280396D01*
X0050048Y0283994D02*
X0077452Y0283994D01*
X0077250Y0285602D02*
X0083750Y0285602D01*
X0083750Y0285602D01*
X0077250Y0285602D01*
X0077554Y0287593D02*
X0049946Y0287593D01*
X0058927Y0289748D02*
X0058927Y0289748D01*
X0068573Y0289748D02*
X0068573Y0289748D01*
D13*
X0063750Y0285602D02*
X0083750Y0285602D01*
X0078750Y0285602D01*
X0063750Y0285602D02*
X0043750Y0285602D01*
X0063750Y0285602D02*
X0063750Y0264602D01*
X0063750Y0260602D02*
X0048750Y0260602D01*
X0043750Y0265602D01*
X0044750Y0256602D02*
X0043750Y0255602D01*
X0044750Y0256602D02*
X0063750Y0256602D01*
X0105671Y0255602D02*
X0106671Y0256602D01*
X0125671Y0256602D01*
X0125671Y0260602D02*
X0110671Y0260602D01*
X0105671Y0265602D01*
X0125671Y0264602D02*
X0125671Y0285602D01*
X0145671Y0285602D01*
X0140671Y0285602D01*
X0125671Y0285602D02*
X0105671Y0285602D01*
X0167592Y0285602D02*
X0187592Y0285602D01*
X0207592Y0285602D01*
X0202592Y0285602D01*
X0187592Y0285602D02*
X0187592Y0264602D01*
X0187592Y0260602D02*
X0172592Y0260602D01*
X0167592Y0265602D01*
X0168592Y0256602D02*
X0167592Y0255602D01*
X0168592Y0256602D02*
X0187592Y0256602D01*
X0229514Y0255602D02*
X0230514Y0256602D01*
X0249514Y0256602D01*
X0249514Y0260602D02*
X0234514Y0260602D01*
X0229514Y0265602D01*
X0249514Y0264602D02*
X0249514Y0285602D01*
X0269514Y0285602D01*
X0264514Y0285602D01*
X0249514Y0285602D02*
X0229514Y0285602D01*
X0229514Y0214902D02*
X0249514Y0214902D01*
X0269514Y0214902D01*
X0264514Y0214902D01*
X0249514Y0214902D02*
X0249514Y0193902D01*
X0249514Y0189902D02*
X0234514Y0189902D01*
X0229514Y0194902D01*
X0230514Y0185902D02*
X0229514Y0184902D01*
X0230514Y0185902D02*
X0249514Y0185902D01*
X0207592Y0214902D02*
X0187592Y0214902D01*
X0167592Y0214902D01*
X0187592Y0214902D02*
X0187592Y0193902D01*
X0187592Y0189902D02*
X0172592Y0189902D01*
X0167592Y0194902D01*
X0168592Y0185902D02*
X0167592Y0184902D01*
X0168592Y0185902D02*
X0187592Y0185902D01*
X0202592Y0214902D02*
X0207592Y0214902D01*
X0145671Y0214902D02*
X0125671Y0214902D01*
X0105671Y0214902D01*
X0125671Y0214902D02*
X0125671Y0193902D01*
X0125671Y0189902D02*
X0110671Y0189902D01*
X0105671Y0194902D01*
X0106671Y0185902D02*
X0105671Y0184902D01*
X0106671Y0185902D02*
X0125671Y0185902D01*
X0140671Y0214902D02*
X0145671Y0214902D01*
X0083750Y0214902D02*
X0063750Y0214902D01*
X0043750Y0214902D01*
X0063750Y0214902D02*
X0063750Y0193902D01*
X0063750Y0189902D02*
X0048750Y0189902D01*
X0043750Y0194902D01*
X0044750Y0185902D02*
X0043750Y0184902D01*
X0044750Y0185902D02*
X0063750Y0185902D01*
X0078750Y0214902D02*
X0083750Y0214902D01*
X0083750Y0144201D02*
X0063750Y0144201D01*
X0043750Y0144201D01*
X0063750Y0144201D02*
X0063750Y0123201D01*
X0063750Y0119201D02*
X0048750Y0119201D01*
X0043750Y0124201D01*
X0044750Y0115201D02*
X0043750Y0114201D01*
X0044750Y0115201D02*
X0063750Y0115201D01*
X0078750Y0144201D02*
X0083750Y0144201D01*
X0105671Y0144201D02*
X0125671Y0144201D01*
X0145671Y0144201D01*
X0140671Y0144201D01*
X0125671Y0144201D02*
X0125671Y0123201D01*
X0125671Y0119201D02*
X0110671Y0119201D01*
X0105671Y0124201D01*
X0106671Y0115201D02*
X0105671Y0114201D01*
X0106671Y0115201D02*
X0125671Y0115201D01*
X0167592Y0114201D02*
X0168592Y0115201D01*
X0187592Y0115201D01*
X0187592Y0119201D02*
X0172592Y0119201D01*
X0167592Y0124201D01*
X0187592Y0123201D02*
X0187592Y0144201D01*
X0207592Y0144201D01*
X0202592Y0144201D01*
X0187592Y0144201D02*
X0167592Y0144201D01*
X0229514Y0144201D02*
X0249514Y0144201D01*
X0269514Y0144201D01*
X0264514Y0144201D01*
X0249514Y0144201D02*
X0249514Y0123201D01*
X0249514Y0119201D02*
X0234514Y0119201D01*
X0229514Y0124201D01*
X0230514Y0115201D02*
X0229514Y0114201D01*
X0230514Y0115201D02*
X0249514Y0115201D01*
X0249514Y0073500D02*
X0229514Y0073500D01*
X0249514Y0073500D02*
X0269514Y0073500D01*
X0264514Y0073500D01*
X0249514Y0073500D02*
X0249514Y0052500D01*
X0249514Y0048500D02*
X0234514Y0048500D01*
X0229514Y0053500D01*
X0230514Y0044500D02*
X0229514Y0043500D01*
X0230514Y0044500D02*
X0249514Y0044500D01*
X0207592Y0073500D02*
X0187592Y0073500D01*
X0167592Y0073500D01*
X0187592Y0073500D02*
X0187592Y0052500D01*
X0187592Y0048500D02*
X0172592Y0048500D01*
X0167592Y0053500D01*
X0168592Y0044500D02*
X0167592Y0043500D01*
X0168592Y0044500D02*
X0187592Y0044500D01*
X0202592Y0073500D02*
X0207592Y0073500D01*
X0145671Y0073500D02*
X0125671Y0073500D01*
X0105671Y0073500D01*
X0125671Y0073500D02*
X0125671Y0052500D01*
X0125671Y0048500D02*
X0110671Y0048500D01*
X0105671Y0053500D01*
X0106671Y0044500D02*
X0105671Y0043500D01*
X0106671Y0044500D02*
X0125671Y0044500D01*
X0140671Y0073500D02*
X0145671Y0073500D01*
X0083750Y0073500D02*
X0063750Y0073500D01*
X0043750Y0073500D01*
X0063750Y0073500D02*
X0063750Y0052500D01*
X0063750Y0048500D02*
X0048750Y0048500D01*
X0043750Y0053500D01*
X0044750Y0044500D02*
X0043750Y0043500D01*
X0044750Y0044500D02*
X0063750Y0044500D01*
X0078750Y0073500D02*
X0083750Y0073500D01*
D14*
X0063750Y0052500D03*
X0063750Y0048500D03*
X0063750Y0044500D03*
X0125671Y0044500D03*
X0125671Y0048500D03*
X0125671Y0052500D03*
X0187592Y0052500D03*
X0187592Y0048500D03*
X0187592Y0044500D03*
X0249514Y0044500D03*
X0249514Y0048500D03*
X0249514Y0052500D03*
X0249514Y0115201D03*
X0249514Y0119201D03*
X0249514Y0123201D03*
X0187592Y0123201D03*
X0187592Y0119201D03*
X0187592Y0115201D03*
X0125671Y0115201D03*
X0125671Y0119201D03*
X0125671Y0123201D03*
X0063750Y0123201D03*
X0063750Y0119201D03*
X0063750Y0115201D03*
X0063750Y0185902D03*
X0063750Y0189902D03*
X0063750Y0193902D03*
X0125671Y0193902D03*
X0125671Y0189902D03*
X0125671Y0185902D03*
X0187592Y0185902D03*
X0187592Y0189902D03*
X0187592Y0193902D03*
X0249514Y0193902D03*
X0249514Y0189902D03*
X0249514Y0185902D03*
X0249514Y0256602D03*
X0249514Y0260602D03*
X0249514Y0264602D03*
X0187592Y0264602D03*
X0187592Y0260602D03*
X0187592Y0256602D03*
X0125671Y0256602D03*
X0125671Y0260602D03*
X0125671Y0264602D03*
X0063750Y0264602D03*
X0063750Y0260602D03*
X0063750Y0256602D03*
M02*
