G75*
%MOIN*%
%OFA0B0*%
%FSLAX25Y25*%
%IPPOS*%
%LPD*%
%AMOC8*
5,1,8,0,0,1.08239X$1,22.5*
%
%ADD10R,0.40000X0.08000*%
%ADD11C,0.04737*%
%ADD12C,0.13800*%
%ADD13C,0.08200*%
%ADD14R,0.05524X0.02965*%
%ADD15R,0.05131X0.04737*%
%ADD16R,0.05800X0.03300*%
%ADD17C,0.05000*%
%ADD18C,0.06706*%
D10*
X0063750Y0033500D03*
X0125671Y0033500D03*
X0187592Y0033500D03*
X0249514Y0033500D03*
X0249514Y0104201D03*
X0187592Y0104201D03*
X0125671Y0104201D03*
X0063750Y0104201D03*
X0063750Y0174902D03*
X0125671Y0174902D03*
X0187592Y0174902D03*
X0249514Y0174902D03*
X0249514Y0245602D03*
X0187592Y0245602D03*
X0125671Y0245602D03*
X0063750Y0245602D03*
D11*
X0043750Y0229902D03*
X0083750Y0229902D03*
X0105671Y0229902D03*
X0145671Y0229902D03*
X0167592Y0229902D03*
X0207592Y0229902D03*
X0229514Y0229902D03*
X0269514Y0229902D03*
X0269514Y0300602D03*
X0237435Y0317553D03*
X0229514Y0300602D03*
X0207592Y0300602D03*
X0167592Y0300602D03*
X0145671Y0300602D03*
X0105671Y0300602D03*
X0083750Y0300602D03*
X0075750Y0317553D03*
X0043750Y0300602D03*
X0043750Y0159201D03*
X0083750Y0159201D03*
X0105671Y0159201D03*
X0145671Y0159201D03*
X0167592Y0159201D03*
X0207592Y0159201D03*
X0229514Y0159201D03*
X0269514Y0159201D03*
X0269514Y0088500D03*
X0229514Y0088500D03*
X0207592Y0088500D03*
X0167592Y0088500D03*
X0145671Y0088500D03*
X0105671Y0088500D03*
X0083750Y0088500D03*
X0043750Y0088500D03*
D12*
X0063750Y0086000D03*
X0125671Y0086000D03*
X0187592Y0086000D03*
X0249514Y0086000D03*
X0249514Y0156701D03*
X0187592Y0156701D03*
X0125671Y0156701D03*
X0063750Y0156701D03*
X0063750Y0227402D03*
X0125671Y0227402D03*
X0187592Y0227402D03*
X0249514Y0227402D03*
X0249514Y0298102D03*
X0187592Y0298102D03*
X0125671Y0298102D03*
X0063750Y0298102D03*
D13*
X0043750Y0033500D03*
X0043750Y0043500D03*
X0043750Y0053500D03*
X0043750Y0063500D03*
X0043750Y0073500D03*
X0043750Y0104201D03*
X0043750Y0114201D03*
X0043750Y0124201D03*
X0043750Y0134201D03*
X0043750Y0144201D03*
X0043750Y0174902D03*
X0043750Y0184902D03*
X0043750Y0194902D03*
X0043750Y0204902D03*
X0043750Y0214902D03*
X0043750Y0245602D03*
X0043750Y0255602D03*
X0043750Y0265602D03*
X0043750Y0275602D03*
X0043750Y0285602D03*
X0083750Y0285602D03*
X0083750Y0275602D03*
X0083750Y0265602D03*
X0083750Y0255602D03*
X0083750Y0245602D03*
X0105671Y0245602D03*
X0105671Y0255602D03*
X0105671Y0265602D03*
X0105671Y0275602D03*
X0105671Y0285602D03*
X0145671Y0285602D03*
X0145671Y0275602D03*
X0145671Y0265602D03*
X0145671Y0255602D03*
X0145671Y0245602D03*
X0167592Y0245602D03*
X0167592Y0255602D03*
X0167592Y0265602D03*
X0167592Y0275602D03*
X0167592Y0285602D03*
X0207592Y0285602D03*
X0207592Y0275602D03*
X0207592Y0265602D03*
X0207592Y0255602D03*
X0207592Y0245602D03*
X0229514Y0245602D03*
X0229514Y0255602D03*
X0229514Y0265602D03*
X0229514Y0275602D03*
X0229514Y0285602D03*
X0269514Y0285602D03*
X0269514Y0275602D03*
X0269514Y0265602D03*
X0269514Y0255602D03*
X0269514Y0245602D03*
X0269514Y0214902D03*
X0269514Y0204902D03*
X0269514Y0194902D03*
X0269514Y0184902D03*
X0269514Y0174902D03*
X0269514Y0144201D03*
X0269514Y0134201D03*
X0269514Y0124201D03*
X0269514Y0114201D03*
X0269514Y0104201D03*
X0269514Y0073500D03*
X0269514Y0063500D03*
X0269514Y0053500D03*
X0269514Y0043500D03*
X0269514Y0033500D03*
X0229514Y0033500D03*
X0229514Y0043500D03*
X0229514Y0053500D03*
X0229514Y0063500D03*
X0229514Y0073500D03*
X0207592Y0073500D03*
X0207592Y0063500D03*
X0207592Y0053500D03*
X0207592Y0043500D03*
X0207592Y0033500D03*
X0167592Y0033500D03*
X0167592Y0043500D03*
X0167592Y0053500D03*
X0167592Y0063500D03*
X0167592Y0073500D03*
X0145671Y0073500D03*
X0145671Y0063500D03*
X0145671Y0053500D03*
X0145671Y0043500D03*
X0145671Y0033500D03*
X0105671Y0033500D03*
X0105671Y0043500D03*
X0105671Y0053500D03*
X0105671Y0063500D03*
X0105671Y0073500D03*
X0083750Y0073500D03*
X0083750Y0063500D03*
X0083750Y0053500D03*
X0083750Y0043500D03*
X0083750Y0033500D03*
X0083750Y0104201D03*
X0083750Y0114201D03*
X0083750Y0124201D03*
X0083750Y0134201D03*
X0083750Y0144201D03*
X0105671Y0144201D03*
X0105671Y0134201D03*
X0105671Y0124201D03*
X0105671Y0114201D03*
X0105671Y0104201D03*
X0145671Y0104201D03*
X0145671Y0114201D03*
X0145671Y0124201D03*
X0145671Y0134201D03*
X0145671Y0144201D03*
X0167592Y0144201D03*
X0167592Y0134201D03*
X0167592Y0124201D03*
X0167592Y0114201D03*
X0167592Y0104201D03*
X0207592Y0104201D03*
X0207592Y0114201D03*
X0207592Y0124201D03*
X0207592Y0134201D03*
X0207592Y0144201D03*
X0229514Y0144201D03*
X0229514Y0134201D03*
X0229514Y0124201D03*
X0229514Y0114201D03*
X0229514Y0104201D03*
X0229514Y0174902D03*
X0229514Y0184902D03*
X0229514Y0194902D03*
X0229514Y0204902D03*
X0229514Y0214902D03*
X0207592Y0214902D03*
X0207592Y0204902D03*
X0207592Y0194902D03*
X0207592Y0184902D03*
X0207592Y0174902D03*
X0167592Y0174902D03*
X0167592Y0184902D03*
X0167592Y0194902D03*
X0167592Y0204902D03*
X0167592Y0214902D03*
X0145671Y0214902D03*
X0145671Y0204902D03*
X0145671Y0194902D03*
X0145671Y0184902D03*
X0145671Y0174902D03*
X0105671Y0174902D03*
X0105671Y0184902D03*
X0105671Y0194902D03*
X0105671Y0204902D03*
X0105671Y0214902D03*
X0083750Y0214902D03*
X0083750Y0204902D03*
X0083750Y0194902D03*
X0083750Y0184902D03*
X0083750Y0174902D03*
D14*
X0068869Y0186161D03*
X0068869Y0193642D03*
X0058631Y0193642D03*
X0058631Y0189902D03*
X0058631Y0186161D03*
X0120553Y0186161D03*
X0120553Y0189902D03*
X0120553Y0193642D03*
X0130790Y0193642D03*
X0130790Y0186161D03*
X0182474Y0186161D03*
X0182474Y0189902D03*
X0182474Y0193642D03*
X0192711Y0193642D03*
X0192711Y0186161D03*
X0244395Y0186161D03*
X0244395Y0189902D03*
X0244395Y0193642D03*
X0254632Y0193642D03*
X0254632Y0186161D03*
X0254632Y0122941D03*
X0254632Y0115461D03*
X0244395Y0115461D03*
X0244395Y0119201D03*
X0244395Y0122941D03*
X0192711Y0122941D03*
X0192711Y0115461D03*
X0182474Y0115461D03*
X0182474Y0119201D03*
X0182474Y0122941D03*
X0130790Y0122941D03*
X0130790Y0115461D03*
X0120553Y0115461D03*
X0120553Y0119201D03*
X0120553Y0122941D03*
X0068869Y0122941D03*
X0068869Y0115461D03*
X0058631Y0115461D03*
X0058631Y0119201D03*
X0058631Y0122941D03*
X0058631Y0052240D03*
X0058631Y0048500D03*
X0058631Y0044760D03*
X0068869Y0044760D03*
X0068869Y0052240D03*
X0120553Y0052240D03*
X0120553Y0048500D03*
X0120553Y0044760D03*
X0130790Y0044760D03*
X0130790Y0052240D03*
X0182474Y0052240D03*
X0182474Y0048500D03*
X0182474Y0044760D03*
X0192711Y0044760D03*
X0192711Y0052240D03*
X0244395Y0052240D03*
X0244395Y0048500D03*
X0244395Y0044760D03*
X0254632Y0044760D03*
X0254632Y0052240D03*
X0254632Y0256862D03*
X0254632Y0264343D03*
X0244395Y0264343D03*
X0244395Y0260602D03*
X0244395Y0256862D03*
X0192711Y0256862D03*
X0192711Y0264343D03*
X0182474Y0264343D03*
X0182474Y0260602D03*
X0182474Y0256862D03*
X0130790Y0256862D03*
X0130790Y0264343D03*
X0120553Y0264343D03*
X0120553Y0260602D03*
X0120553Y0256862D03*
X0068869Y0256862D03*
X0068869Y0264343D03*
X0058631Y0264343D03*
X0058631Y0260602D03*
X0058631Y0256862D03*
D15*
X0060404Y0270602D03*
X0067096Y0270602D03*
X0122325Y0270602D03*
X0129018Y0270602D03*
X0184246Y0270602D03*
X0190939Y0270602D03*
X0246167Y0270602D03*
X0252860Y0270602D03*
X0252860Y0199902D03*
X0246167Y0199902D03*
X0190939Y0199902D03*
X0184246Y0199902D03*
X0129018Y0199902D03*
X0122325Y0199902D03*
X0067096Y0199902D03*
X0060404Y0199902D03*
X0060404Y0129201D03*
X0067096Y0129201D03*
X0122325Y0129201D03*
X0129018Y0129201D03*
X0184246Y0129201D03*
X0190939Y0129201D03*
X0246167Y0129201D03*
X0252860Y0129201D03*
X0252860Y0058500D03*
X0246167Y0058500D03*
X0190939Y0058500D03*
X0184246Y0058500D03*
X0129018Y0058500D03*
X0122325Y0058500D03*
X0067096Y0058500D03*
X0060404Y0058500D03*
D16*
X0051750Y0048100D03*
X0051750Y0044900D03*
X0113671Y0044900D03*
X0113671Y0048100D03*
X0175592Y0048100D03*
X0175592Y0044900D03*
X0237514Y0044900D03*
X0237514Y0048100D03*
X0237514Y0115601D03*
X0237514Y0118801D03*
X0175592Y0118801D03*
X0175592Y0115601D03*
X0113671Y0115601D03*
X0113671Y0118801D03*
X0051750Y0118801D03*
X0051750Y0115601D03*
X0051750Y0186302D03*
X0051750Y0189502D03*
X0113671Y0189502D03*
X0113671Y0186302D03*
X0175592Y0186302D03*
X0175592Y0189502D03*
X0237514Y0189502D03*
X0237514Y0186302D03*
X0237514Y0257002D03*
X0237514Y0260202D03*
X0175592Y0260202D03*
X0175592Y0257002D03*
X0113671Y0257002D03*
X0113671Y0260202D03*
X0051750Y0260202D03*
X0051750Y0257002D03*
D17*
X0072185Y0020250D02*
X0072187Y0020369D01*
X0072193Y0020488D01*
X0072203Y0020607D01*
X0072217Y0020725D01*
X0072235Y0020843D01*
X0072256Y0020960D01*
X0072282Y0021076D01*
X0072312Y0021192D01*
X0072345Y0021306D01*
X0072382Y0021419D01*
X0072423Y0021531D01*
X0072468Y0021642D01*
X0072516Y0021751D01*
X0072568Y0021858D01*
X0072624Y0021963D01*
X0072683Y0022067D01*
X0072745Y0022168D01*
X0072811Y0022268D01*
X0072880Y0022365D01*
X0072952Y0022459D01*
X0073028Y0022552D01*
X0073106Y0022641D01*
X0073187Y0022728D01*
X0073272Y0022813D01*
X0073359Y0022894D01*
X0073448Y0022972D01*
X0073541Y0023048D01*
X0073635Y0023120D01*
X0073732Y0023189D01*
X0073832Y0023255D01*
X0073933Y0023317D01*
X0074037Y0023376D01*
X0074142Y0023432D01*
X0074249Y0023484D01*
X0074358Y0023532D01*
X0074469Y0023577D01*
X0074581Y0023618D01*
X0074694Y0023655D01*
X0074808Y0023688D01*
X0074924Y0023718D01*
X0075040Y0023744D01*
X0075157Y0023765D01*
X0075275Y0023783D01*
X0075393Y0023797D01*
X0075512Y0023807D01*
X0075631Y0023813D01*
X0075750Y0023815D01*
X0075869Y0023813D01*
X0075988Y0023807D01*
X0076107Y0023797D01*
X0076225Y0023783D01*
X0076343Y0023765D01*
X0076460Y0023744D01*
X0076576Y0023718D01*
X0076692Y0023688D01*
X0076806Y0023655D01*
X0076919Y0023618D01*
X0077031Y0023577D01*
X0077142Y0023532D01*
X0077251Y0023484D01*
X0077358Y0023432D01*
X0077463Y0023376D01*
X0077567Y0023317D01*
X0077668Y0023255D01*
X0077768Y0023189D01*
X0077865Y0023120D01*
X0077959Y0023048D01*
X0078052Y0022972D01*
X0078141Y0022894D01*
X0078228Y0022813D01*
X0078313Y0022728D01*
X0078394Y0022641D01*
X0078472Y0022552D01*
X0078548Y0022459D01*
X0078620Y0022365D01*
X0078689Y0022268D01*
X0078755Y0022168D01*
X0078817Y0022067D01*
X0078876Y0021963D01*
X0078932Y0021858D01*
X0078984Y0021751D01*
X0079032Y0021642D01*
X0079077Y0021531D01*
X0079118Y0021419D01*
X0079155Y0021306D01*
X0079188Y0021192D01*
X0079218Y0021076D01*
X0079244Y0020960D01*
X0079265Y0020843D01*
X0079283Y0020725D01*
X0079297Y0020607D01*
X0079307Y0020488D01*
X0079313Y0020369D01*
X0079315Y0020250D01*
X0079313Y0020131D01*
X0079307Y0020012D01*
X0079297Y0019893D01*
X0079283Y0019775D01*
X0079265Y0019657D01*
X0079244Y0019540D01*
X0079218Y0019424D01*
X0079188Y0019308D01*
X0079155Y0019194D01*
X0079118Y0019081D01*
X0079077Y0018969D01*
X0079032Y0018858D01*
X0078984Y0018749D01*
X0078932Y0018642D01*
X0078876Y0018537D01*
X0078817Y0018433D01*
X0078755Y0018332D01*
X0078689Y0018232D01*
X0078620Y0018135D01*
X0078548Y0018041D01*
X0078472Y0017948D01*
X0078394Y0017859D01*
X0078313Y0017772D01*
X0078228Y0017687D01*
X0078141Y0017606D01*
X0078052Y0017528D01*
X0077959Y0017452D01*
X0077865Y0017380D01*
X0077768Y0017311D01*
X0077668Y0017245D01*
X0077567Y0017183D01*
X0077463Y0017124D01*
X0077358Y0017068D01*
X0077251Y0017016D01*
X0077142Y0016968D01*
X0077031Y0016923D01*
X0076919Y0016882D01*
X0076806Y0016845D01*
X0076692Y0016812D01*
X0076576Y0016782D01*
X0076460Y0016756D01*
X0076343Y0016735D01*
X0076225Y0016717D01*
X0076107Y0016703D01*
X0075988Y0016693D01*
X0075869Y0016687D01*
X0075750Y0016685D01*
X0075631Y0016687D01*
X0075512Y0016693D01*
X0075393Y0016703D01*
X0075275Y0016717D01*
X0075157Y0016735D01*
X0075040Y0016756D01*
X0074924Y0016782D01*
X0074808Y0016812D01*
X0074694Y0016845D01*
X0074581Y0016882D01*
X0074469Y0016923D01*
X0074358Y0016968D01*
X0074249Y0017016D01*
X0074142Y0017068D01*
X0074037Y0017124D01*
X0073933Y0017183D01*
X0073832Y0017245D01*
X0073732Y0017311D01*
X0073635Y0017380D01*
X0073541Y0017452D01*
X0073448Y0017528D01*
X0073359Y0017606D01*
X0073272Y0017687D01*
X0073187Y0017772D01*
X0073106Y0017859D01*
X0073028Y0017948D01*
X0072952Y0018041D01*
X0072880Y0018135D01*
X0072811Y0018232D01*
X0072745Y0018332D01*
X0072683Y0018433D01*
X0072624Y0018537D01*
X0072568Y0018642D01*
X0072516Y0018749D01*
X0072468Y0018858D01*
X0072423Y0018969D01*
X0072382Y0019081D01*
X0072345Y0019194D01*
X0072312Y0019308D01*
X0072282Y0019424D01*
X0072256Y0019540D01*
X0072235Y0019657D01*
X0072217Y0019775D01*
X0072203Y0019893D01*
X0072193Y0020012D01*
X0072187Y0020131D01*
X0072185Y0020250D01*
D18*
X0075750Y0020250D03*
M02*
